<svg version="1.2" xmlns="http://www.w3.org/2000/svg" viewBox="0 0 1024 1024" width="1024" height="1024">
	<title>image</title>
	<style>
		.s0 { opacity: .38;fill: #faf9f1 } 
		.s1 { opacity: 1;fill: #062c28 } 
		.s2 { opacity: 1;fill: #fbfcf6 } 
		.s3 { opacity: 1;fill: #060b0b } 
		.s4 { opacity: 1;fill: #072d2a } 
		.s5 { opacity: 1;fill: #5e6f68 } 
		.s6 { opacity: 1;fill: #434e42 } 
		.s7 { opacity: .72;fill: #faf8f0 } 
		.s8 { opacity: 1;fill: #c7cbb4 } 
		.s9 { opacity: 1;fill: #f1f0e2 } 
		.s10 { opacity: 1;fill: #062825 } 
		.s11 { opacity: 1;fill: #95a093 } 
	</style>
	<g id="Background">
		<path id="Path 0" class="s0" d="m218.2 655.1c-0.9 0.4 2.1 0.6 6.8 0.6 4.7 0 7.6-0.1 6.5-0.3-1.1-0.2-4.2-0.4-6.8-0.6-2.6-0.2-5.5 0-6.5 0.3z"/>
		<path id="Path 1" class="s1" d="m315.1 604.7c-0.8 0.2-1.4 1-1.3 1.6 0.1 0.7-0.5 2.1-1.3 3.2l-1.5 2c-2.4-3.1-2.8-3.4-2.3-2.6 0.5 0.8 0.2 1.7-0.7 2.3-1.2 0.8-1.2 0.9 0.2 0.4 1-0.3 1.8-0.3 1.8 0.1 0 0.5-0.8 1.6-1.8 2.6-0.9 0.9-1.5 1.9-1.2 2.2 0.3 0.3 2.5-2.2 5-5.4 2.5-3.3 4.9-5.7 5.5-5.3 0.6 0.4 0.7 0.2 0.2-0.6-0.4-0.6-0.8-1.2-1-1.1-0.1 0-0.9 0.3-1.7 0.6z"/>
		<path id="Path 2" class="s2" d="m218 368.7c3 0.2 8.2 0.2 11.5 0 3.3-0.2 0.8-0.3-5.5-0.3-6.3 0-9 0.1-6 0.3zm-48.5 12.4c-3.3 1.6-6.7 3.7-7.5 4.6-0.9 0.9 0.2 0.6 2.5-0.8 2.2-1.3 6-3.3 8.5-4.6 2.5-1.2 4.1-2.2 3.5-2.2-0.6-0.1-3.7 1.3-7 3zm105.5-1.6c0 0.3 3 2.1 6.8 4.1 3.7 2 9.2 5.4 12.2 7.7 3 2.2 4.8 3.3 4 2.3-0.8-1-4.4-3.7-8-6.1-3.6-2.3-8.4-5.2-10.7-6.4-2.3-1.2-4.2-1.9-4.3-1.6zm-130.8 20.3l-8.9 8.7c12.6-11.5 16.9-15.5 17.7-16.2 0.8-0.7 1.1-1.3 0.7-1.3-0.3 0-4.6 3.9-9.5 8.8zm161.8 1.7c3.6 3.6 6.7 6.5 7 6.5 0.3 0-2.3-2.9-5.7-6.5-3.4-3.6-6.5-6.5-7-6.5-0.4 0 2.1 2.9 5.7 6.5zm-180.2 19.8c-1.9 2.8-4.1 6.3-4.8 7.7-0.7 1.4-1 2.3-0.7 2 0.3-0.3 2.3-3.2 4.4-6.5 2.2-3.3 4.2-6.6 4.6-7.2 0.3-0.7 0.5-1.3 0.3-1.3-0.2 0-1.9 2.4-3.8 5.3zm213.7 86.9c0 25.1 0.3 45.4 0.8 45.2 0.4-0.2 0.7-19 0.6-41.6 0-22.7-0.3-43.1-0.7-45.2-0.4-2.2-0.7 16.6-0.7 41.6zm-230.7-37.9c-0.4 1.2-0.7 20.4-0.6 42.7l0.2 40.5c0.9-65.9 1.1-85.1 1.1-85.2 0-0.2-0.3 0.7-0.7 2zm228.9 94c-1 4.5-1.7 8.3-1.5 8.4 0.2 0.1 1.1-3.4 2-7.7 0.9-4.4 1.6-8.2 1.5-8.4-0.1-0.3-1 3.2-2 7.7zm-11.8 31c-1.2 2.3-3.5 6.2-5.2 8.7-1.9 2.8-2.2 3.8-0.9 2.5 1.1-1.1 3.6-5 5.6-8.7 2-3.8 3.4-6.8 3.1-6.8-0.3 0-1.4 1.9-2.6 4.3zm-19.4 25.2c-6.1 6.2-9.9 10.4-8.5 9.5 1.4-1 5.9-5.4 10.1-9.7 4.1-4.3 8.1-8.6 8.8-9.5 0.7-1 1.1-1.7 0.9-1.7-0.2 0.1-5.3 5.2-11.3 11.4zm-169.5-3c1.9 2.1 5.1 5.4 7 7.2 1.9 1.9 6.2 5.3 9.5 7.7 3.3 2.4 7.8 5.4 10 6.7 2.2 1.2 3.8 2 3.5 1.7-0.3-0.4-4-2.9-8.3-5.7-4.2-2.8-11.6-8.8-16.5-13.3-4.8-4.5-7.1-6.5-5.2-4.3zm141 24c-4.7 2.4-8.2 4.4-7.8 4.4 0.5 0.1 4.4-1.7 8.8-3.9 4.4-2.2 8-4.2 8-4.5 0-0.3-0.1-0.5-0.3-0.4-0.1 0-4 2-8.7 4.4z"/>
		<path id="Path 3" class="s3" d="m200.5 372c-4.9 1-12.4 3.1-16.5 4.6-4.1 1.4-9.8 3.8-12.5 5.2-2.8 1.3-8.2 4.6-12 7.1-3.8 2.5-10.5 8-14.9 12.1-4.3 4.1-10 10.4-12.7 14-2.7 3.6-6.9 10.3-9.3 15-2.4 4.7-5.5 12.1-7 16.5-1.4 4.4-3.2 11.3-4.1 15.3-1.2 5.8-1.5 15.5-1.4 51.5 0 24.3 0.3 45 0.7 45.9 0.4 1 0.6-18.6 0.4-43.5-0.2-38.3 0-46.4 1.3-53.2 0.9-4.4 3-11.9 4.6-16.7 1.6-4.9 4.4-11.8 6.3-15.5 1.8-3.8 6-10.4 9.3-14.8 3.3-4.4 8.9-10.7 12.4-13.9 3.5-3.2 9.1-7.8 12.4-10.2 3.3-2.3 8.9-5.8 12.5-7.7 3.6-1.9 9.7-4.6 13.5-6 3.8-1.4 11.7-3.5 17.5-4.6 7.2-1.5 14.2-2.1 22.5-2.1 6.6 0 16.3 0.7 21.5 1.6 5.2 0.8 12.9 2.7 17 4.1 4.1 1.4 11.1 4.3 15.5 6.5 4.4 2.2 10.2 5.6 13 7.5 2.7 2 7.2 5.5 9.8 7.7 2.7 2.3 8.4 8.4 12.8 13.6 4.4 5.2 9.7 12.9 11.9 17 2.1 4.1 4.8 10 5.9 13 1.2 3 3.1 9.1 4.4 13.5 2.1 7.8 2.2 9.3 2.2 56.5v48.5c-4.4 14-6.9 21.1-8.5 25-1.6 3.9-6.1 11.7-9.9 17.5-3.8 5.8-9.8 13.3-13.3 16.7-3.4 3.3-9.4 8.4-13.3 11.3-3.9 2.8-11.1 7.1-16 9.5-4.9 2.3-12.1 5.3-16 6.4-3.9 1.2-10.2 2.9-14 3.7-3.8 0.8-11.5 1.8-17 2.1-7.1 0.4-13.2 0.1-21-1.2-6.1-0.9-14.8-2.8-19.5-4.2-4.7-1.3-12.1-4.2-16.5-6.3-4.4-2.1-12-6.7-16.9-10.2-4.9-3.4-11.4-9-14.4-12.3-3.1-3.3-7.6-8.7-10-12-2.4-3.3-6.1-9.4-8.2-13.5-2.1-4.1-5.2-11.9-6.9-17.2-1.7-5.4-3.1-10.7-3.1-11.8 0-1.1-0.5-2-1-2-0.7 0-0.6 1.3 0.1 3.8 0.5 2 2.2 7.3 3.6 11.7 1.4 4.4 4.2 11.1 6.1 15 1.9 3.9 4.9 9.3 6.8 12 1.8 2.8 5.7 7.8 8.6 11.1 2.9 3.4 8 8.4 11.3 11.1 3.3 2.7 8.5 6.6 11.5 8.5 3 1.9 7.7 4.6 10.5 6 2.7 1.4 8.8 3.9 13.5 5.6 4.7 1.6 11.2 3.5 14.5 4.1 3.3 0.6 7.1 1.4 8.5 1.7 1.4 0.3 7.2 0.8 13 1.1 7 0.3 13.9 0 20.5-1 5.5-0.9 13.8-2.8 18.5-4.2 4.7-1.5 11.9-4.3 16-6.2 4.1-1.9 11.1-5.8 15.5-8.8 4.4-3 11.9-9.3 16.6-14.2 4.8-4.8 10.7-11.9 13.1-15.8 2.5-3.9 5.9-9.7 7.5-13 1.7-3.3 4.3-9.6 5.8-14 1.5-4.4 3.3-11.3 4.1-15.2 1.1-5.6 1.4-17.6 1.4-50.5 0-32.9-0.4-44.9-1.4-49.8-0.8-3.6-2.6-10.1-4.1-14.5-1.4-4.4-4.2-11.1-6.2-15-1.9-3.9-5.4-9.7-7.8-13-2.3-3.3-6.9-8.9-10.1-12.4-3.2-3.5-9-8.9-12.9-12-3.9-3.1-9.9-7.3-13.5-9.3-3.6-2-10.7-5.3-15.8-7.2-5-2-11.1-4-13.5-4.5-2.3-0.6-5.5-1.3-7.2-1.7-1.7-0.3-10.7-0.8-20-1-14.1-0.3-18.5 0-26 1.6z"/>
		<path id="Path 4" fill-rule="evenodd" class="s4" d="m223 371.2c5.2-0.1 13.4 0.4 18.2 1.1 4.7 0.6 8.5 1.4 8.3 1.7-0.1 0.3 0.9 0.3 2.4 0.1 2.1-0.4 2.4-0.2 1.6 1-0.8 1.1-0.7 1.2 0.5 0.5 0.9-0.5 3.1-0.3 5.7 0.5 2.3 0.8 4 1.7 3.8 2.2-0.3 0.4 0.1 0.4 0.8 0.1 0.6-0.3 4.4 1 8.4 2.8 4 1.8 7 3.6 6.8 4.1-0.3 0.4 0.4 0.3 1.5-0.3 1.7-0.9 1.9-0.7 1.5 1-0.3 1.1 0.1 2.3 0.7 2.8q1.3 0.7 0.5-0.5c-0.4-0.7-0.4-1.3 0-1.3 0.5 0 2.4 1.1 4.3 2.3 1.9 1.2 4.4 2.8 5.4 3.7 1.1 0.8 3.6 3 5.8 4.8 2.4 2 3.5 3.7 3 4.4q-0.7 1.3 0.5 0.5c0.7-0.4 1.3-0.2 1.3 0.3 0 0.6 0.7 1 1.5 1 0.8 0 2 1 2.7 2.3 0.7 1.2 1.1 2.5 1 3-0.1 0.4 0.1 0.5 0.5 0.2 0.5-0.2 1.6 0.4 2.5 1.5 1 1.1 1.6 2.3 1.4 2.8-0.3 0.4 0 1.4 0.6 2.2 0.8 1.2 0.9 1.2 0.4-0.2-0.3-1-0.4-1.8-0.1-1.8 0.3 0 1.6 1.7 3 3.8 1.3 2 2.6 5.2 2.7 7.1 0.2 1.9 0.9 3.6 1.5 3.8 0.7 0.1 1.3-0.1 1.3-0.7 0-0.5-0.3-0.8-0.8-0.6-0.4 0.2-0.8-0.8-0.9-2.2-0.1-2.3 0.2-2.1 2.4 1.8 1.4 2.5 3.4 6.5 4.4 9 1.1 2.5 1.7 5.4 1.4 6.5-0.5 1.6-0.4 1.7 0.4 0.5 0.7-1.1 1.4 0 2.9 5 1.1 3.6 2.7 10.3 3.6 15 1.3 7 1.6 15.9 1.6 49.3 0 31.8-0.3 40.7-1.3 40.8-1 0-1 0.1 0 0.5 1 0.3 0.8 2.4-0.7 9.2-1.1 4.8-2.7 11-3.6 13.7-1.6 4.7-1.7 4.9-3.1 3-1.3-1.9-1.3-1.9-1.1 0.7 0.2 1.4 0.6 2.4 1 2.2 0.5-0.2 0.8-0.2 0.8 0.1 0 0.3-1.9 4.2-4.1 8.8-2.3 4.5-5 9.4-6 11-1.1 1.5-2.2 2.6-2.7 2.6-0.4-0.1-1.3-0.1-2 0-0.6 0-1.2 0.7-1.2 1.4 0 0.6-0.8 2-1.8 2.9-1.6 1.7-1.8 1.7-3 0-0.8-0.9-1-1.1-0.5-0.3 0.5 0.8 0.2 1.7-0.7 2.3-1.2 0.8-1.2 0.9 0.2 0.4 1.1-0.4 1.8-0.1 1.8 0.7 0.1 0.6 1 0.2 2-1 1.1-1.3 2.2-2.3 2.5-2.3 0.3 0-0.9 1.6-2.5 3.5-1.6 1.9-2.8 4-2.5 4.5 0.3 0.5 0 0.9-0.7 0.8-0.7-0.2-1.2 0.2-1.3 0.9 0 0.6-0.4 1.5-0.8 2-0.5 0.4-1.4 0.8-2 0.8-0.7 0.1-1 0.7-0.9 1.5 0.2 0.8 0 1.2-0.5 0.8-0.4-0.5-1.4-0.2-2.1 0.5-0.7 0.6-1.6 0.8-2 0.4-0.4-0.4 0-1.2 0.8-1.6 1.1-0.7 1.2-1 0.2-1.5-0.6-0.3-1.4 0.1-1.7 0.9-0.3 0.8-0.3 2 0 2.5 0.3 0.5-1.5 2.6-4 4.5-2.5 1.9-4.9 3.3-5.5 3-0.6-0.3-1 0-1 0.5 0 0.5-2 2.1-4.5 3.5-2.5 1.4-5.1 2.2-5.8 1.8-0.7-0.5-0.9-0.4-0.5 0.2 0.4 0.6-1 1.9-3.2 3-2.2 1.1-3.8 2.2-3.6 2.5 0.2 0.3-0.6 0.5-1.7 0.5-1.2 0.1-3.3 0.4-4.7 0.9-1.9 0.5-2.1 0.5-1-0.3 1.3-0.9 1.2-1.1-0.5-1.1-1.1 0-2.9 0.6-4 1.4-1.9 1.5-1.9 1.5 0.5 1.1 1.4-0.3-0.2 0.4-3.5 1.6-3.3 1.1-11.4 2.7-18 3.6-10.2 1.4-13.7 1.5-23.3 0.5-6.1-0.7-11.8-0.9-12.4-0.6-0.7 0.3-0.4-0.2 0.7-1.1 2-1.6 1.9-1.6-0.5-1-1.5 0.4-5.5-0.2-10.3-1.7-4.3-1.2-7.7-2.6-7.7-3 0-0.5-0.4-0.6-1-0.3-0.6 0.3-4.1-1-8-2.7-4-1.9-6.6-3.7-6.2-4.3 0.4-0.6 0.2-0.7-0.5-0.2-0.8 0.4-3.4-0.6-6.3-2.3q-5-3-4.3-4.2 0.8-1.3-0.5-0.5c-0.7 0.4-2.7-0.4-4.7-1.8-2.2-1.6-3.2-3-2.8-3.7q0.8-1.3-0.5-0.5c-0.7 0.4-2.5-0.5-4.4-2.3-1.8-1.6-3.7-2.6-4.2-2.2-0.5 0.4-0.6 0.1-0.3-0.5 0.4-0.7-0.2-2.3-1.3-3.5-1.1-1.3-1.6-2.7-1.2-3.1 0.4-0.5 0-0.7-0.8-0.5-1 0.2-1.5-0.5-1.5-2.3 0-1.5-0.3-2.5-0.7-2.3-0.5 0.2-0.5 1-0.1 1.7 0.3 0.6-0.2 0.4-1.3-0.6-1-0.9-2.3-1.4-2.8-1-0.5 0.5-0.6 0.2-0.3-0.4 0.4-0.7 0-2.4-0.8-3.8-0.8-1.4-1.8-2.3-2.2-2.1-0.5 0.2-0.9-0.7-1-2-0.2-1.7 0.1-2.2 0.9-1.6q1.3 0.7 0.5-0.5c-0.4-0.7-1.6-1.1-2.7-0.8-1.1 0.3-1.8 0.2-1.5-0.2 0.2-0.5-0.9-3.9-2.4-7.8-1.6-3.9-3.2-8.1-3.5-9.5-0.4-1.8-0.2-1.6 0.9 0.8 0.8 1.7 1.7 3.2 2 3.2 0.3 0 0.2-0.8-0.1-1.7-0.3-1-0.9-2.7-1.4-3.8-0.4-1.1-1.3-3.1-1.9-4.5-1-2.4-1-2.4-0.6 0.5 0.3 1.6-0.4 0.3-1.5-3-1.1-3.3-2.5-8.7-3.1-12-0.7-3.9-0.9-21.3-0.3-94l2.9-10c1.6-5.5 2.9-11 2.9-12.2 0.1-1.1 0.4-1.9 0.9-1.7 0.4 0.2 1.2-1 1.7-2.6 0.5-1.6 1.5-2.8 2-2.5 0.5 0.3 1 0.3 1 0 0-0.3-0.5-1.5-1.2-2.7-1-2.1-1-2.2 0.5-1 1.1 0.7 1.9 0.8 2.2 0.2 0.3-0.5 1-0.8 1.5-0.5 0.6 0.3 0.7-0.2 0.4-1.2-0.5-1.7-0.7-1.6-1.8 0.2-1.2 1.8-1.3 1.9-1.9 0.3-0.4-1.1-0.3-1.6 0.3-1.3 0.5 0.3 1 0.2 1-0.2 0-0.5 0.8-1.7 1.8-2.8 1-1.1 1.8-2.3 1.8-2.6-0.1-0.4 1.4-2.8 3.2-5.3 2.1-3 3.6-4.3 4.5-3.9 0.7 0.5 0.9 0.4 0.5-0.2-0.4-0.6-0.1-2 0.7-3.2 0.8-1.3 1.9-2.1 2.5-1.8 0.6 0.3 0.9 0.1 0.8-0.3-0.2-0.4 0.9-2.2 2.5-4 1.5-1.8 2.9-3.2 3.2-3.2 0.3 0 0.2 0.6-0.2 1.3-0.4 0.7 0.1 0.6 1.1-0.3 0.9-0.8 1.7-1.6 1.6-1.7 0-0.2-0.6 0-1.2 0.4-0.7 0.3-0.2-0.6 1.2-2.1 1.4-1.5 4.8-4.5 7.5-6.6 2.8-2.1 8.5-5.7 12.8-7.9 4.4-2.4 8.2-3.8 9-3.4 0.7 0.5 0.9 0.4 0.5-0.2-0.4-0.6 1.7-1.9 5-3.2 3.1-1.2 8.4-2.9 11.7-3.8 3.3-0.9 7.2-1.5 8.6-1.3 1.5 0.1 2.5 0 2.3-0.4-0.2-0.5 1.5-0.9 3.9-1.1 2.3-0.2 8.5-0.4 13.7-0.5zm-25 22.6c-3.6 1.1-7.8 2.5-9.5 3.2-1.7 0.6-5.7 2.5-9 4.2-3.3 1.7-8.5 4.9-11.5 7.1-3 2.3-7.9 6.4-10.8 9.1-3 2.8-7.6 8-10.2 11.6-2.6 3.6-6.3 9.6-8.2 13.5-2 3.9-4.3 9.5-5.3 12.5-1 3-2.4 8.2-3.1 11.5-0.9 4.4-1.2 17.2-1 47 0.2 39.2 0.3 41.4 2.5 49.5 1.2 4.7 4.2 12.5 6.6 17.5 2.4 5 6.5 11.9 9.3 15.5 2.7 3.6 8 9.3 11.8 12.6 3.8 3.4 9.8 8 13.4 10.1 3.6 2.2 8.8 5 11.5 6.2 2.8 1.2 9.3 3.4 14.5 4.9 8 2.2 11.5 2.6 22.6 2.7 7.3 0 13 0.3 12.8 0.8-0.2 0.4 0 0.7 0.6 0.7 0.6 0 1-0.5 1-1 0-0.5 2.4-1.3 5.2-1.6 2.9-0.3 9.4-1.9 14.3-3.6 4.9-1.6 11.5-4.3 14.5-6 3-1.6 8.2-4.9 11.5-7.3 3.3-2.3 8.9-7.3 12.4-11.1 3.6-3.8 8.5-10 11-13.9 2.5-3.9 5.6-9.7 6.9-13 1.3-3.3 3-8 3.8-10.5 0.7-2.5 1.6-6.1 1.9-8 0.3-1.9 1-6.2 1.6-9.5 0.7-3.9 0.9-19.2 0.6-43-0.4-36.8-0.4-37-3.1-46-1.5-4.9-3.9-11.6-5.4-14.8-1.5-3.2-3-5.8-3.5-5.7-0.4 0-0.7-0.6-0.7-1.2 0-0.7-2.1-4.2-4.7-7.8-2.6-3.6-7.5-9.2-10.8-12.5-3.4-3.3-9.5-8.2-13.6-11-4.1-2.7-10.8-6.4-14.9-8.2-4.1-1.8-10.2-3.9-13.5-4.8-3.3-0.9-8-1.7-10.5-1.9-2.5-0.1-4.9-0.5-5.5-0.7-0.6-0.2-7.3-0.1-15 0.2-9.6 0.5-16 1.3-20.5 2.7z"/>
		<path id="Path 5" class="s5" d="m220 369.7c2.5 0.2 6.8 0.2 9.5 0 2.8-0.2 0.7-0.3-4.5-0.3-5.2 0-7.5 0.1-5 0.3zm119.5 140.8c0 22.5 0.1 32 0.2 21 0.2-11 0.2-29.4 0-41-0.1-11.6-0.2-2.6-0.2 20z"/>
		<path id="Path 6" class="s6" d="m109.5 509.5c0 19.3 0.1 26.9 0.2 17 0.2-9.9 0.2-25.6 0-35-0.1-9.4-0.3-1.3-0.2 18z"/>
		<path id="Path 7" class="s0" d="m219.5 390.7c2.2 0.2 6 0.2 8.5 0 2.5-0.2 0.7-0.4-4-0.4-4.7 0-6.7 0.2-4.5 0.4z"/>
		<path id="Path 8" class="s7" d="m537 523.2c-0.3 11.4-0.2 20.4 0.2 20 0.5-0.4 0.7-9.7 0.5-20.7l-0.2-20z"/>
		<path id="Path 9" class="s8" d="m696.4 471c0 7.4 0.1 10.4 0.3 6.5 0.2-3.9 0.2-9.9 0-13.5-0.2-3.6-0.3-0.4-0.3 7zm0 41.5c0 15.4 0.2 21.5 0.3 13.5 0.2-8 0.2-20.6 0-28-0.1-7.4-0.3-0.9-0.3 14.5zm-104 2.5c0 15.1 0.2 21.2 0.3 13.5 0.2-7.7 0.2-20.1 0-27.5-0.1-7.4-0.3-1.1-0.3 14zm-20 3c0 14.6 0.2 20.4 0.3 13 0.2-7.4 0.2-19.4 0-26.5-0.1-7.1-0.3-1.1-0.3 13.5zm227 0c0 14.6 0.2 20.4 0.3 13 0.2-7.4 0.2-19.4 0-26.5-0.1-7.1-0.3-1.1-0.3 13.5zm-158.4-7.3c6.9 0.2 18.6 0.2 26 0 7.4-0.1 1.8-0.3-12.5-0.3-14.3 0-20.4 0.2-13.5 0.3zm-255 36c1.9 0.2 5.3 0.2 7.5 0 2.2-0.2 0.6-0.4-3.5-0.4-4.1 0-5.9 0.2-4 0.4zm49.5 0c2.2 0.2 6 0.2 8.5 0 2.5-0.2 0.7-0.4-4-0.4-4.7 0-6.7 0.2-4.5 0.4zm52.5 0c2.5 0.2 6.8 0.2 9.5 0 2.8-0.2 0.7-0.3-4.5-0.3-5.2 0-7.5 0.1-5 0.3zm34 0c2.5 0.2 6.1 0.2 8 0 1.9-0.2-0.1-0.4-4.5-0.4-4.4 0-6 0.2-3.5 0.4zm180 0c1.9 0.2 5.3 0.2 7.5 0 2.2-0.2 0.6-0.4-3.5-0.4-4.1 0-5.9 0.2-4 0.4zm52 0c1.9 0.2 5.3 0.2 7.5 0 2.2-0.2 0.6-0.4-3.5-0.4-4.1 0-5.9 0.2-4 0.4zm51 0c1.9 0.2 5.3 0.2 7.5 0 2.2-0.2 0.6-0.4-3.5-0.4-4.1 0-5.9 0.2-4 0.4z"/>
		<path id="Path 10" class="s9" d="m536.4 518c0 14 0.2 19.9 0.3 13 0.2-6.9 0.2-18.4 0-25.5-0.1-7.1-0.3-1.5-0.3 12.5zm211.9-14c0 4.7 0.2 6.5 0.4 4 0.2-2.5 0.2-6.3 0-8.5-0.2-2.2-0.4-0.2-0.4 4.5zm0.1 25c0 8.5 0.2 11.9 0.3 7.5 0.2-4.4 0.2-11.4 0-15.5-0.1-4.1-0.3-0.5-0.3 8z"/>
		<path id="Path 11" class="s1" d="m117.2 449.2c0.2 1.5 0 2.8-0.5 2.8-0.4 0-0.6 0.6-0.5 1.3 0.1 0.6-0.3 2.2-1 3.5-0.7 1.2-1 2.5-0.8 3 0.3 0.4 0.7-0.3 1-1.5 0.3-1.3 1.1-2.3 1.6-2.3 0.5 0 0.8-0.7 0.5-1.5-0.3-0.8 0.2-2.1 1-2.7 0.9-0.7 1.6-1.9 1.5-2.5 0-0.7-0.5-1.1-1-0.8-0.6 0.3-1.2-0.1-1.5-0.7-0.3-0.7-0.4-0.1-0.3 1.4zm556.8 26.1c0 1.5 0.7 3 1.5 3.5 0.8 0.4 1.7 0.5 2 0.2 0.2-0.3-0.5-1.9-1.5-3.5l-2-3zm-342 95.5c0 1.2-0.4 2.5-1 2.8-0.6 0.2-0.7-0.3-0.3-1.3 0.6-1.6 0.5-1.6-1.1-0.2-0.9 0.8-1.7 1.8-1.6 2.2 0 0.4 0.9 0.8 2 0.8 1.4 0 2.1-0.9 2.4-2.6 0.2-1.4 0.2-2.9 0-3.2-0.3-0.4-0.4 0.3-0.4 1.5zm-59 69.2c-0.8 0.5-2.8 0.7-4.5 0.4-2.8-0.6-2.9-0.5-1.5 1.1 1.4 1.6 1.8 1.6 4.8 0.1 1.7-0.8 3.2-1.8 3.2-2 0-0.3-0.1-0.5-0.2-0.5-0.2 0-1 0.4-1.8 0.9zm-38.1 9.6c-1.2 1.4-1 1.6 1.5 1.3 1.6-0.2 3.1-0.9 3.3-1.6 0.2-0.7-0.5-1.2-1.6-1.2-1 0-2.5 0.7-3.2 1.5z"/>
		<path id="Path 12" class="s10" d="m517.6 460.3c-0.2 0.6-0.3 19.9-0.2 42.7l0.1 41.5 0.5-84.5 6.5-0.7c-5.2-0.2-6.7 0.2-6.9 1zm-195.1 52.2c0 19.2 0.1 26.9 0.2 17 0.2-9.9 0.2-25.6 0-35-0.1-9.4-0.3-1.3-0.2 18zm178.9-5c0 7.7 0.2 10.6 0.3 6.5 0.2-4.1 0.2-10.4 0-14-0.2-3.6-0.3-0.2-0.3 7.5zm0 26c0 6.6 0.1 9.1 0.3 5.5 0.2-3.6 0.2-9 0-12-0.2-3-0.3-0.1-0.3 6.5z"/>
		<path id="Path 13" class="s11" d="m716.4 518.5c0 12.6 0.2 17.6 0.3 11 0.2-6.6 0.2-17 0-23-0.1-6.1-0.3-0.6-0.3 12z"/>
		<path id="Path 14" fill-rule="evenodd" class="s2" d="m205 391c-2.6 0.6-2.9 0.8-1 0.8 1.4 0 4.5-0.3 7-0.7 4.1-0.8 4.2-0.8 1-0.8-1.9 0-5.1 0.3-7 0.7zm54 5.2c1.4 0.6 5.1 2.5 8.3 4 3.2 1.6 5.8 2.6 5.7 2.3 0-0.3-2.6-1.8-5.8-3.4-3.1-1.5-6.8-3.1-8.2-3.5l-2.5-0.6zm17 8.5c1.3 1 5.1 3.8 8.4 6.3 3.3 2.5 8.3 7.2 11.2 10.5 2.9 3.3 6.2 7.1 7.4 8.5l2.2 2.5c-3.1-4.6-6.5-8.7-9.5-12-2.9-3.3-7.8-7.8-10.8-10.1-3-2.3-6.8-4.9-8.4-5.8-3-1.7-3-1.7-0.5 0.1zm-113.4 6.6c-2.8 2.3-7 6.4-9.5 9.1-2.6 2.7-5.2 5.8-6 7-0.7 1.1 0.7-0.2 3.3-3.1 2.5-2.9 7.6-7.9 11.3-11.3 3.8-3.3 6.6-6 6.3-6-0.3 0-2.7 1.9-5.4 4.3zm146.1 28.4c2.1 3.9 3.9 6.9 4.1 6.7 0.1-0.2-0.9-2.5-2.2-5.1-1.4-2.7-3.2-5.7-4-6.8-0.9-1.1 0.1 1.2 2.1 5.2zm419.1 16.9c-2.7 0.8-4.9 1.8-5.1 2.4-0.1 0.5 1.3 0.2 3.3-0.6 1.9-0.9 6.2-1.9 9.5-2.4 5.6-0.7 5.7-0.7 1.5-0.8-2.5 0-6.6 0.6-9.3 1.4zm-248.1 1.2c2.8 0.9 6 2.4 7 3.3 1.1 0.9 2.6 1.9 3.4 2.3 0.8 0.4 0.4-0.2-1-1.4-1.4-1.2-4.3-3-6.5-4-2.2-1.1-4.9-1.9-6-1.9-1.1 0 0.3 0.7 3.1 1.7zm-92.6 0c4.5 0.2 6.9 0.9 7.8 2 1.1 1.5 1.2 1.4 0.3-0.5-1-2.1-1.7-2.3-7.9-2.1l-6.7 0.2zm240.5 1.3c-2.2 1.2-4.7 2.8-5.5 3.6-0.8 0.9 0.3 0.4 2.5-0.9 2.2-1.4 5.4-3 7-3.5 1.6-0.6 2.3-1.2 1.5-1.2-0.8-0.1-3.3 0.9-5.5 2zm35 1.3c3.9 1.9 8.6 5.2 10.5 7.3 1.9 2.1 4.3 5 5.3 6.3 1.7 2.4 1.7 2.4 0-0.8-1-1.9-3.7-5.1-6.1-7.3-2.3-2.1-6.5-5-9.2-6.4-2.8-1.4-5.6-2.5-6.3-2.5-0.6 0 1.9 1.5 5.8 3.4zm-285.3 40.9c-0.1 24 0.1 43.9 0.5 44.1 0.5 0.2 0.7-12.5 0.5-28.2-0.1-15.8-0.3-35.7-0.5-44.2-0.1-8.5-0.4 4.2-0.5 28.3zm23.5-40.3q-3.7 3-4.1 1.8c-0.3-0.7-0.5-0.2-0.5 1.2l-0.1 2.5c4.3-4 6.6-5.9 8-6.8 1.4-0.9 2-1.7 1.5-1.7-0.6 0-2.7 1.4-4.8 3zm51.1-0.1c-2 1.6-4.7 4.1-6 5.6l-2.3 2.7-9.9-9.7 9.9 11.2c3.9-5 7-7.9 9.5-9.6 2.5-1.7 4-3.1 3.5-3.1-0.6 0.1-2.7 1.4-4.7 2.9zm243.6 12.1c0 8.5 0.2 11.9 0.3 7.5 0.2-4.4 0.2-11.4 0-15.5-0.1-4.1-0.3-0.5-0.3 8zm18-12.2c0.9 1.8 1.3 3.8 0.9 4.5-0.4 0.7 0.7 0.2 2.5-1 1.7-1.3 3.5-2.8 3.9-3.5 0.4-0.7-0.4-0.5-1.7 0.5-1.4 0.9-2.8 1.7-3.3 1.7-0.4 0-0.6-0.6-0.5-1.4 0.2-0.7-0.6-2-1.6-2.7-1.7-1.3-1.7-1.2-0.2 1.9zm139.6-0.4c-2.5 1.3-5.2 3.2-6 4.2-1.2 1.5-0.9 1.4 1.5-0.3 1.6-1.2 5-3 7.5-4.2 2.5-1.1 3.8-2 3-2-0.8 0-3.5 1.1-6 2.3zm-337.5 42.1c0 24.2 0.1 33.9 0.2 21.5 0.2-12.4 0.2-32.2 0-44-0.1-11.8-0.2-1.7-0.2 22.5zm99-33.2c-2.6 2.9-5.6 6.9-6.6 9-1.1 2-1.7 3.7-1.4 3.7 0.3 0 1.3-1.7 2.4-3.7 1-2.1 4-6.1 6.5-9 2.6-2.9 4.5-5.3 4.3-5.3-0.3 0-2.6 2.4-5.2 5.3zm-122.5-3.5c0 0.7 0.4 1.2 1 1.2 0.6 0 2.6 3.3 4.5 7.3 2 4 3.5 6.7 3.5 6 0-0.7-1.1-3.4-2.4-6-1.3-2.6-3.3-5.9-4.5-7.3-1.1-1.4-2-1.9-2.1-1.2zm420.4 12.7c2 3.3 3.6 6.5 3.6 7 0 0.6 0.2 0.7 0.5 0.3 0.3-0.4-0.7-3.1-2.2-5.9-1.6-2.8-3.4-5.6-4.2-6.2-0.7-0.7 0.3 1.5 2.3 4.8zm-506.4-0.2c-1.9 1.3-4.5 4.4-5.7 6.8-2.2 4.3-2.3 5.2-2.1 32.9l0.2 28.5c1.1-57.6 1.2-59.1 3.3-62.6 1.2-1.9 3.8-4.4 5.8-5.4 2.7-1.3 4.8-1.6 8.3-1.2 2.9 0.4 5.6 1.5 7.1 2.9 1.3 1.3 3 3.7 3.7 5.3 0.7 1.7 1.3 2.3 1.4 1.5 0-0.8-0.9-2.8-2-4.5-1.1-1.6-3.3-3.8-4.8-4.7-1.5-1-4.6-1.8-7.2-1.8-3.1 0-5.6 0.8-8 2.3zm-277.5 33.7c0 19.5 0.1 27.4 0.2 17.5 0.2-9.9 0.2-25.9 0-35.5-0.1-9.6-0.2-1.5-0.2 18zm328-32.7c-1.5 1.2-3.2 3.1-3.8 4.2-0.6 1.1-1.4 3.3-1.9 4.8-0.5 1.7-0.4 2.5 0.2 2.2 0.6-0.3 1-1.2 1-2 0-0.8 0.6-2.9 1.4-4.5 0.8-1.7 2.9-3.9 4.8-5 1.8-1.1 2.8-2 2.2-2-0.6 0-2.4 1-3.9 2.3zm99-1.6c1.6 0.2 4.6 1 6.5 1.9 1.9 0.8 4.6 2.9 6 4.7 2.5 3.2 2.5 3.2 3.1 31.7l0.5 28.5-0.1-57c-4.6-6-7.5-8.4-9.3-9.1-1.7-0.8-4.7-1.3-6.5-1.2l-3.2 0.1zm-235.1 26.3c0 10.2 0.2 14.3 0.3 9 0.2-5.2 0.2-13.5 0-18.5-0.1-4.9-0.3-0.6-0.3 9.5zm397.2-16.5c-0.3 0.9-0.6 13.9-0.6 29 0 27.4 0 27.5-2.2 29-1.3 0.9-1.8 1.6-1.3 1.6 0.5 0 1.8-0.8 2.7-1.8 1.5-1.6 1.7-5.1 2-30.5 0.2-15.8 0.2-28.8 0.1-28.8-0.1 0-0.4 0.7-0.7 1.5zm80.2 20.4c0.1 11.9 0.3 25 0.5 29.1 0.2 4.2 0.4-5.1 0.5-20.5 0.1-15.4-0.2-28.5-0.6-29.1-0.4-0.7-0.6 8.6-0.4 20.5zm-295.4 9.1c0 16.8 0.2 23.6 0.3 15 0.2-8.5 0.2-22.2 0-30.5-0.1-8.2-0.3-1.2-0.3 15.5zm91-1.5c0 15.4 0.2 21.5 0.3 13.5 0.2-7.9 0.2-20.5 0-28-0.1-7.4-0.3-0.9-0.3 14.5zm226.6-0.2c0 23.2-0.2 27.6-1.6 29.7l-1.6 2.5c4.2-4.9 4.3-5.9 4.2-32.2 0-15-0.2-27.3-0.5-27.3-0.3 0-0.5 12.3-0.5 27.3zm-124.6 1.2c0 15.4 0.2 21.5 0.3 13.5 0.2-7.9 0.2-20.5 0-28-0.1-7.4-0.3-0.9-0.3 14.5zm-214 2.5c0 14.6 0.2 20.5 0.3 13 0.2-7.4 0.2-19.3 0-26.5-0.1-7.1-0.3-1-0.3 13.5zm-31.4 0.7c-0.3 14.4-0.2 25.9 0.2 25.5 0.5-0.3 0.7-12.1 0.5-26.2l-0.2-25.5zm152.3-23.3c-0.3 0.7-0.4 4-0.2 7.2l0.4 5.9c0.8-11.2 0.9-14.5 0.7-14.5-0.1 0-0.5 0.6-0.9 1.4zm166.1 18.1c0 11 0.2 15.8 0.3 10.5 0.2-5.2 0.2-14.2 0-20-0.1-5.7-0.3-1.5-0.3 9.5zm-339 5.5c0 13.5 0.2 18.9 0.3 12 0.2-6.8 0.2-17.9 0-24.5-0.1-6.6-0.3-0.9-0.3 12.5zm398.7-18c0.1 2.5 0.5 5.9 0.9 7.5 0.5 1.9 0.6 0.3 0.3-4-0.3-3.8-0.8-7.2-1-7.5-0.2-0.2-0.3 1.6-0.2 4zm-204.1 10.3c0 0.7 0.6 2.8 1.4 4.7 0.8 2 2.7 4.7 4.3 6.2 1.5 1.4 4.1 3.3 5.8 4.1 1.6 0.9 4.6 1.8 6.5 2.2 1.9 0.3 4.8 0.2 6.5-0.3 2.5-0.7 2-0.8-3-0.8-3.8 0-7.3-0.7-9.5-1.8-1.9-1-4.6-2.8-5.8-3.9-1.3-1.2-3-3.7-3.8-5.7-0.8-1.9-1.4-3.8-1.4-4.2 0-0.4 12.5-0.9 27.7-1l27.8-0.3c-50.3-0.4-56.5-0.2-56.5 0.8zm293.1 3.7c0 0.9-1.5 4.5-3.3 8-1.8 3.6-4.9 8.2-6.8 10.2-1.9 2-5.9 5.3-8.8 7.3-2.8 1.9-4.9 3.6-4.5 3.6 0.5 0 3.6-2 7-4.5 3.5-2.5 7.7-6.5 9.4-8.8 1.7-2.4 4.2-6.6 5.5-9.5 1.3-2.9 2.2-5.8 2-6.5q-0.4-1.2-0.5 0.2zm-256.7 6c-1.6 1.7-4.1 3.6-5.7 4.3-1.5 0.7-2.5 1.3-2.2 1.5 0.3 0.1 1.5-0.3 2.7-0.9 1.3-0.6 4-2.7 6.1-4.5 2.1-1.9 3.4-3.4 2.9-3.4-0.4 0-2.2 1.4-3.8 3zm13.1-0.2c4.6 2.1 6.4 3.5 7.2 5.7 0.6 1.7 1.2 2.5 1.2 1.8 0.1-0.7-0.4-2.2-0.9-3.3-0.6-1.1-2.7-2.8-4.8-3.8-2-1.1-4.8-2.2-6.2-2.6-1.4-0.3 0.2 0.6 3.5 2.2zm-66.5 3.7c-0.1 0.6 1.3 2.9 3 5.3 1.6 2.3 4.6 5.7 6.6 7.5 2 1.8 5.3 4.2 7.3 5.5 2 1.2 4 2.2 4.6 2.2 0.5 0-0.6-0.9-2.5-1.9-1.9-1-5.7-3.8-8.4-6.2-2.7-2.4-6.2-6.4-7.8-8.9-1.6-2.4-2.8-4-2.8-3.5zm232.9 8c1.9 2.2 4.8 5.1 6.5 6.4 1.7 1.2 4 2.7 5.1 3.2 1.1 0.6 0.9 0.2-0.5-0.8-1.4-0.9-5.2-4.2-8.5-7.3-4.8-4.4-5.3-4.7-2.6-1.5zm-408.9 12.8c1.2 1.5 2.8 1.8 8 1.6l6.5-0.2c-10.1-0.6-13.7-1.3-14.5-2-1.3-1-1.3-1 0 0.6zm-45.5 1.5c1.6 0.2 4.8 0.2 7 0 2.2-0.3 0.8-0.4-3-0.4-3.9 0-5.7 0.1-4 0.4zm316 0c1.6 0.2 4.8 0.2 7 0 2.2-0.3 0.8-0.4-3-0.4-3.9 0-5.7 0.1-4 0.4zm53 0c1.6 0.2 4.8 0.2 7 0 2.2-0.3 0.8-0.4-3-0.4-3.9 0-5.7 0.1-4 0.4zm50 0c1.6 0.2 4.8 0.2 7 0 2.2-0.3 0.8-0.4-3-0.4-3.9 0-5.7 0.1-4 0.4zm-653.5 54c1.8 2 5.2 5.3 7.4 7.2 2.4 2 1.3 0.5-2.8-3.8-3.7-3.9-7.1-7.2-7.4-7.2-0.3 0 0.9 1.7 2.8 3.8z"/>
		<path id="Path 15" fill-rule="evenodd" class="s3" d="m223.3 388.1c9.1-0.1 16.3 0.4 21.4 1.5 4.3 0.9 11.2 2.9 15.3 4.5 4.1 1.6 11.3 5.2 16 8 5.6 3.4 11.8 8.5 18 14.8 5.7 5.7 11.6 12.8 14.5 17.6 2.7 4.4 6.2 11.3 7.7 15.2 1.6 4 3.5 10.4 4.3 14.3 1.2 5.5 1.5 15.1 1.5 46.2 0 30.2-0.3 41-1.5 46.8-0.7 4.1-2.3 10-3.4 13-1 3-2.6 7.2-3.5 9.2-0.9 2.1-3 6.2-4.8 9-1.8 2.9-5.9 8.6-9.2 12.7-3.4 4.1-9 9.8-12.6 12.7-3.6 2.8-9.6 6.9-13.5 9.1-3.9 2.1-9.3 4.8-12 6-2.8 1.2-8.8 3.1-13.5 4.2-4.7 1.2-12.8 2.4-18 2.7-5.8 0.4-13 0.2-18.5-0.6-5-0.7-12.6-2.4-17-3.7-4.4-1.4-11.2-4.1-15-6.1-3.9-1.9-9-4.8-11.5-6.5-2.5-1.7-7.1-5.4-10.3-8.1-3.3-2.8-8.3-8.3-11.2-12.1-3-3.9-7.1-10.4-9.3-14.5-2.2-4.1-5-10.7-6.1-14.5-1.2-3.9-2.1-7.5-2.1-8 0.1-0.5 1.5 3.3 3.3 8.5 1.8 5.2 5.5 13.3 8.2 17.8 2.8 4.6 8 11.6 11.6 15.5 3.6 4 9.4 9.4 13 12 3.5 2.7 10.5 6.9 15.4 9.3 4.9 2.4 13.5 5.6 19 7.1 8.3 2.1 12.4 2.6 24 2.7 11.7 0.1 15.6-0.3 23.5-2.3 5.2-1.3 13.8-4.3 19-6.8 5.2-2.4 12.2-6.4 15.5-8.7 3.3-2.4 8.6-7 11.9-10.2 3.2-3.3 7.8-8.6 10.1-11.9 2.4-3.3 6.2-9.8 8.4-14.5 2.2-4.7 5.1-12.1 6.3-16.5 2.1-7.6 2.2-10.2 2.6-50.5 0.3-42.2 0.3-42.6-2.1-52-1.4-5.2-4.4-13.5-6.8-18.4-2.4-4.9-7.4-12.5-11-17-3.6-4.4-9.7-10.8-13.7-14.1-3.9-3.3-10.4-7.8-14.4-10.1-4-2.2-10.2-5.3-13.8-6.7-3.6-1.4-10.3-3.3-15-4.3-6.7-1.3-11.7-1.6-23.5-1.1-11.1 0.4-16.9 1.1-22.5 2.7-4.1 1.2-10.7 3.6-14.5 5.4-3.9 1.8-9.9 5.2-13.5 7.6-3.6 2.4-9.6 7.3-13.3 10.9-3.8 3.6-9 9.5-11.7 13.1-2.6 3.6-6.3 9.6-8.3 13.5-1.9 3.8-4.4 10.1-5.6 14-1.2 3.8-2.6 9.9-4 20l0.4-6.5c0.2-3.6 1.4-9.7 2.5-13.5 1.2-3.9 3.8-10.2 5.7-14 1.9-3.9 5.4-9.7 7.8-13 2.3-3.3 7.1-8.9 10.6-12.5 3.5-3.6 9.3-8.6 12.9-11.1 3.6-2.6 9.6-6.3 13.5-8.2 3.8-1.9 10.8-4.6 15.5-6 4.7-1.4 9.6-2.8 11-3 1.4-0.2 8.7-0.5 16.2-0.6zm194.3 68.9c3.3 0 7.6 0.5 9.5 1.1 1.9 0.7 5.1 2.4 7.1 3.8 2 1.4 4.8 4.3 6.3 6.3 1.4 2.1 2.1 3.8 1.6 3.8-0.6 0-1-0.5-1-1 0-0.6-1.5-2.6-3.3-4.6-1.7-2-5-4.6-7.2-5.7-2.4-1.2-6.8-2.2-11-2.5-5.6-0.4-7.9-0.1-11.5 1.5-2.5 1.1-6.2 3.4-8.3 5.2-2 1.7-3.7 2.9-3.7 2.6 0-0.3 1.2-1.7 2.7-3.1 1.6-1.4 5-3.7 7.8-5 3.5-1.7 6.8-2.4 11-2.4zm53 0.3c6.6 0.2 9 0.8 13.4 3.3 3 1.6 6.9 4.7 8.8 6.9 1.8 2.2 4.3 6.4 5.3 9.2 1.1 2.9 2.3 7.7 2.6 10.5 0.3 2.9 0.6 17.3 0.9 58.8h-8.8c-7.7 0-8.8-0.2-9.7-2-0.6-1.1-1-2.2-1-2.5 0-0.3 0.4-0.5 1-0.5 0.5 0 1 0.9 1 2 0 1.8 0.7 2 16 2l-0.3-31.3c-0.2-28.3-0.5-31.7-2.2-36.1-1.1-2.7-4-7.1-6.5-9.9-2.5-2.7-6.3-5.9-8.5-7-2.4-1.2-6.7-2.2-11-2.5-5.5-0.3-8.3 0.1-12.8 1.7-4.4 1.6-7 3.4-10.3 7.1-2.4 2.8-4.4 4.7-4.4 4.2-0.1-0.4 1.7-2.6 4-5 2.2-2.3 6.4-5.3 9.2-6.8 4.6-2.2 6.3-2.5 13.3-2.1zm88.2-0.3c4.1 0 8.3 0.8 12 2.2 3.9 1.4 7.4 3.8 10.5 7 2.7 2.6 5.7 6.7 6.8 9 1.1 2.4 1.9 5 1.9 5.8 0 0.8-0.6 0.1-1.2-1.5-0.7-1.7-1.9-4.4-2.8-6-0.9-1.7-4.1-5.2-7-7.8-3.3-2.9-7.3-5.4-10.4-6.4-3.4-1.1-7.1-1.4-11.5-1.1-3.6 0.3-8.8 1.5-11.5 2.7-2.8 1.2-6 3.1-7.3 4.2-1.2 1-2.7 1.7-3.2 1.4-0.5-0.3-1-1.6-1-3 0-1.7-0.7-2.8-2.3-3.3-1.2-0.4-4.9-0.8-14.2-0.7v85l7.5 0.2c4.9 0.2 7.9-0.1 8.8-1 1-0.9 1.3-7.4 1.2-28.5 0-21.5 0.3-27.8 1.4-30 0.8-1.5 2.5-3.7 3.8-4.9 1.2-1.2 4-2.9 6-3.7 2.1-0.9 5.7-1.6 8-1.6 2.5 0 6.2 0.9 8.8 2.2 2.6 1.4 5.7 4.1 10.5 11l1 56.3 7 0.3c4.5 0.1 7.5-0.2 8.3-1 1.1-1.1 1.3-7.1 1-31.3-0.1-16.4 0-28.6 0.3-27 0.4 1.7 0.7 15.5 0.8 30.7 0.1 26.9 0 27.8-1.9 28.8-1.1 0.5-5.3 0.9-16.5 0.5l-0.5-28.5c-0.4-24.3-0.7-29-2.1-31-1-1.4-2.8-3.6-4-4.9-1.3-1.4-3.9-3.1-5.7-3.8-1.7-0.7-5.1-1.3-7.5-1.3-2.5 0-6 0.9-8.7 2.3-2.5 1.3-5.5 3.9-6.8 5.8-2.2 3.3-2.3 3.9-2.2 31.1 0 23.4-0.2 28-1.5 29.3-1.1 1.1-3.5 1.4-18 1l-0.5-87.5 8.5 0.2c6.3 0.2 8.8 0.7 9.5 1.8 0.5 0.8 1 2.5 1 3.7 0 2.3 0 2.3 4.7-0.7 2.7-1.7 6.6-3.7 8.8-4.5 2.2-0.8 6.8-1.4 10.2-1.5zm87.8 0.3c7.7 0.2 9.9 0.7 15.5 3.4 4.3 2 8.1 4.9 11.3 8.4 2.7 3 6.1 8.1 7.7 11.4 1.5 3.3 3.3 8.4 3.9 11.2 0.6 2.9 1.1 7.3 1.1 9.8 0 3.2-0.6 5.1-2 6.5-1.9 1.9-3.4 2-30.8 2-25.9 0.1-28.8 0.2-30 1.8-1.1 1.5-1.2 1.4 0.8-2.8h28.7c25.9 0 29-0.2 30.6-1.8 1.2-1.1 1.7-3.1 1.7-6.2 0-2.5-0.7-7.2-1.6-10.5-0.9-3.3-2.9-8.5-4.5-11.5-1.6-3-4.3-7.1-6.1-9.1-1.8-2-5.1-4.8-7.3-6.2-2.2-1.5-6.3-3.3-9-4.2-2.8-0.8-7.7-1.5-11-1.5-3.3 0-8.3 0.7-11.2 1.7-2.9 0.9-7.6 3.1-10.5 4.9-2.9 1.8-6.7 5-8.4 7.1-1.6 2.1-4 5.4-5.1 7.3-1.2 1.9-2.8 6.2-3.7 9.5-0.9 3.3-1.6 9.9-1.6 14.7 0 5.7 0.6 10.8 1.8 14.5 1 3.2 2.9 7.8 4.4 10.3 1.4 2.5 4.4 6.2 6.7 8.2 2.2 2.1 6.2 4.9 8.8 6.1 2.7 1.3 7 3 9.8 3.7 3.3 0.9 7.5 1.1 12.5 0.7 5.2-0.5 9.5-1.6 14-3.7 3.6-1.7 8.7-5.1 11.3-7.8 4-3.8 4.8-5.2 4.3-7.2-0.4-1.9-1.9-3.1-12.5-7.5l-3.5 3.2c-2 1.8-5.1 4-6.9 4.9-1.7 0.9-5.9 1.9-9.2 2.1-4.5 0.4-7.1 0-10.5-1.5-2.5-1.1-6-3.5-7.9-5.3-1.8-1.9-3.7-4.4-4.2-5.7-0.5-1.2-0.9-2.8-0.9-3.5 0-0.6 0.9 0.6 1.9 2.8 0.9 2.2 3.3 5.3 5.2 6.9 1.9 1.5 5 3.5 6.9 4.2 1.9 0.8 5.3 1.4 7.5 1.4 2.2 0 5.7-0.5 7.7-1 2.1-0.6 5.9-2.8 8.5-5.1 3.9-3.3 5.3-3.9 7.3-3.4 1.4 0.4 4.5 1.7 7 2.8 3.1 1.5 4.6 2.9 4.7 4.4 0.2 1.3-0.5 3.5-1.5 5-0.9 1.5-4.4 4.7-7.7 7.1-3.5 2.5-8.7 5.1-12.5 6.3-3.6 1.1-9.2 1.9-12.5 1.9-3.3 0-8.7-0.8-12-1.8-3.3-1-8-3.2-10.5-4.9-2.5-1.7-5.8-4.4-7.4-5.9-1.6-1.6-3.9-4.5-5.1-6.4-1.2-1.9-3.2-6.4-4.4-10-1.5-4.7-2.1-9-2.1-15.5 0-5 0.7-11.7 1.5-15 0.9-3.3 2.8-8 4.2-10.5 1.5-2.5 4.5-6.5 6.7-8.8 2.3-2.4 5.7-5.4 7.6-6.5 1.9-1.2 5.7-2.9 8.5-3.9 3.6-1.3 7.4-1.7 14-1.5zm90.5-0.3c4.7 0 7.9 0.7 11.5 2.3 2.8 1.3 6.7 4.3 8.8 6.8 2 2.4 3.7 4.8 3.7 5.4-0.1 0.5-0.9-0.1-1.8-1.5-0.9-1.4-3-3.8-4.7-5.4-1.6-1.5-4.4-3.5-6-4.4-1.7-0.8-6.2-1.7-10-2-5.3-0.3-8.1 0.1-11.5 1.4-2.5 1-6.2 3.3-8.3 5.1-2 1.8-4 3.3-4.5 3.3-0.4-0.1 0.9-1.5 2.8-3.1 1.9-1.7 5.7-4.2 8.5-5.5 3.7-1.8 6.7-2.4 11.5-2.4zm49.7 0c4 0 8.3 0.8 11.5 2 2.9 1.1 6.6 3.1 8.3 4.4 1.6 1.2 4.4 4.5 6.2 7.2 1.7 2.7 3.4 6.2 4.3 10.9l-1.2-3c-0.7-1.7-2-4.4-2.9-6-0.9-1.7-3.6-4.8-6-7.1-2.7-2.4-6.6-4.8-9.9-5.9-3.9-1.2-7.4-1.6-12-1.3-4.5 0.3-7.9 1.2-11 3-2.5 1.4-6.2 4.5-8.3 6.9-2 2.4-3.7 4.1-3.7 3.6 0-0.4 1.9-2.8 4.2-5.4 2.4-2.5 6.5-5.7 9.3-6.9 3.6-1.7 6.8-2.4 11.2-2.4zm88.8 0.3c8 0.3 11.1 0.9 15.5 2.9 3 1.4 7.7 4.3 10.5 6.5 2.7 2.1 6.6 6.4 8.6 9.4 2.1 3 4.6 8.2 5.8 11.6 1.4 4.4 2.1 8.9 2.1 14.5 0 5.5-0.6 10.5-2 14.8-1.1 3.6-3.5 8.7-5.3 11.5-1.8 2.7-5.3 6.6-7.8 8.6-2.4 2-6.7 4.8-9.4 6.2-2.8 1.3-7.4 3-10.3 3.6-2.8 0.6-7.5 1.1-10.2 1.1-2.8 0-7.8-0.9-11.3-2.1-3.4-1.1-8-3.1-10.2-4.3-2.2-1.3-6.2-4.5-8.9-7.2-2.9-2.9-6.2-7.6-8-11.4-1.8-4.1-3.3-9.5-4-14.5-0.7-5.7-0.6-9.8 0.2-14.5 0.6-3.6 2.4-9.2 4-12.5 1.6-3.3 4.4-7.8 6.3-9.9 1.9-2.1 5.4-5.3 7.9-7 2.5-1.7 7.2-4.1 10.5-5.3 5.2-2 7.4-2.3 16-2zm-17.7 27.3c-1.5 1.6-3.6 4.9-4.7 7.4-1.3 2.8-2.1 6.6-2.1 10 0 3 0.5 7.2 1 9.2 0.6 2.1 2.7 5.7 4.7 7.9 2.1 2.3 5.7 5 8 6 2.4 1.1 6.2 1.9 8.5 1.9 2.4 0 6.3-0.6 8.8-1.4 2.9-1 5.9-3.1 8.4-5.8 2.2-2.4 4.6-5.9 5.4-7.8 0.9-1.9 1.6-6.4 1.6-10 0.1-3.9-0.6-8.3-1.6-11-1-2.5-3.2-5.9-5-7.7-1.8-1.8-5.3-3.9-7.8-4.8-2.5-0.8-6.3-1.5-8.5-1.5-2.2 0-6.3 1.1-9 2.4-2.8 1.3-6.2 3.6-7.7 5.2zm-479.3-26.8l7.3 0.4c5.1 0.2 7.6 0.8 8.2 1.8 0.5 0.8 0.9 2.8 0.7 7.5l-0.4-3.3c-0.2-2.3-1-3.5-2.8-4.2-1.4-0.6-4.5-1-11.5-1v86h16.5l-0.3-22c-0.1-12.1 0.1-21.8 0.5-21.6 0.5 0.2 0.9 10.4 1.3 44.6h-19zm318.8-0.1l6.7 0.4c4 0.2 7.3 1 8.4 1.9 0.9 0.8 1.6 2.6 1.6 4-0.2 2.4-0.2 2.3-1-0.5-0.8-2.6-1.5-3.1-5.7-3.8-2.6-0.4-5.8-0.7-9.3-0.7v86h7c3.8 0 7.7-0.2 8.5-0.5 1.3-0.4 1.5-4.4 1.4-55l2.8-5.4c2.1-4.2 3.9-6 7.3-7.8 3.6-2 5.4-2.3 9-1.8 2.5 0.3 6 1.7 7.7 3 1.8 1.4 4.3 4.4 5.5 6.7 2.2 4.1 2.3 5.7 3.3 60.3h16l1.1-57-0.1 58h-18l-0.5-28.5c-0.5-27.1-0.6-28.7-2.8-32.8-1.2-2.3-3.7-5.1-5.5-6.2-1.7-1.1-4.6-2.3-6.2-2.6-1.7-0.4-4.6-0.1-6.5 0.5-1.9 0.6-4.7 2.3-6.2 3.8-1.5 1.5-3.4 4.5-4.2 6.5-1.3 3.1-1.6 8.7-1.6 30.8 0 26-0.1 27-2 28-1.1 0.5-5.3 0.9-16.5 0.5zm-283.8 16.3c1.7 0 4.8 0.8 7 1.8 2.2 1 5 3.1 6.1 4.7 1.2 1.6 2.7 4.5 3.4 6.5 1 2.4 1.4 11.5 2 58h16l0.3-28.3c0.2-26.5 0.4-28.5 2.3-32.2 1.2-2.2 3.7-5.3 5.5-6.8 1.9-1.5 5.2-3.1 7.4-3.4 2.9-0.4 5.3 0 8.8 1.5 3.2 1.5 5.6 3.5 7.5 6.4 2.2 3.3 2.8 5.7 3.3 12.2 0.3 4.4 0.2 8.5-0.2 9.1-0.5 0.5-0.9-2.5-0.9-7 0-6.9-0.4-8.8-2.7-13-2.2-3.9-3.7-5.4-7.3-6.9q-4.5-1.9-8-1.3c-1.9 0.3-5 1.6-6.9 2.9-1.9 1.2-4.3 4.1-5.5 6.3-1.9 3.7-2.1 6.1-3.1 61l-8 0.2c-4.4 0.1-8.5-0.2-9.2-0.7-1-0.8-1.2-6.6-1-24.3 0.2-12.8 0-25.7-0.5-28.7-0.5-3.1-1.9-7.2-3.1-9.3-1.3-2.4-3.7-4.6-6.2-5.8-2.2-1-5.3-1.9-7-1.9-1.6 0-4.7 1-6.7 2.3-2.1 1.2-4.9 4-6.3 6.2-1.9 3.1-2.4 5.3-2.5 10.2 0 3.5-0.4 6.3-1 6.3-0.6 0-0.7-2.4-0.4-6.3 0.4-3.4 1.4-7.8 2.4-9.7 1-2 2.7-4.3 3.7-5.2 1-0.9 3.2-2.3 4.8-3.2 1.7-0.8 4.4-1.6 6-1.6zm371.5 0.3c2 0.2 5.3 1.4 7.5 2.7 2.7 1.7 4.6 4 6.2 7.5 2.2 4.8 2.3 5.9 2.3 60.5h7.3c4.7 0 7.7-0.4 8.5-1.2 0.9-1 1.2-8.4 1-31.6-0.2-16.6 0-29.4 0.4-28.5 0.4 1 0.7 14.9 0.8 31 0 28.3 0 29.3-2 30.3-1.1 0.5-5.2 0.9-16.5 0.5l-0.5-29c-0.4-24.2-0.7-29.5-2.1-32-0.9-1.7-3-4.3-4.7-5.8-1.8-1.5-3.7-2.8-4.4-2.8-0.7-0.1-2.3-0.3-3.6-0.5-1.4-0.3-4.4 0.2-6.8 1.2-3.3 1.2-5.2 2.8-7.4 6.2-1.7 2.6-3 4-3 3.2 0.1-0.9 1.1-3 2.4-4.9 1.3-1.8 4.4-4.2 6.8-5.3 2.5-1.1 5.8-1.7 7.8-1.5zm-658.7 2.2l0.8 39c0.4 21.4 1 40.3 1.9 45l-1.1-3c-0.8-2.1-1.2-15.7-1.4-42zm356.5 28.8c0.4 0.5 0.8 8.2 1 17.2 0.1 9.1-0.1 16.6-0.5 16.9-0.4 0.2-0.9-7.6-1-17.3-0.1-9.7 0.1-17.3 0.5-16.8z"/>
		<path id="Path 16" fill-rule="evenodd" class="s4" d="m417.3 458.1c2.3-0.1 3.7 0.4 3.8 1.1q0.1 1.4 0.4 0.1c0.2-0.9 1.5-0.8 5.1 0.2 2.7 0.8 5.1 1.2 5.4 1 0.3-0.2 0.5 0.3 0.5 1 0 0.7-0.6 1.1-1.3 0.9-0.6-0.2-1.4-0.1-1.6 0.3-0.2 0.5 0.9 0.7 2.5 0.5 1.7-0.1 3.3 0.4 3.9 1.3 0.6 0.8 1.4 1.3 2 1 0.6-0.3 0.9-0.2 0.8 0.2-0.1 0.5 0.2 2 0.5 3.5 0.4 1.6 1.1 2.8 1.7 2.8 0.6 0 0.8 0.4 0.5 1q-0.5 1 1.5 0c1.1-0.6 2.4-1.8 3-2.8 0.5-0.9 0.6-2.1 0.2-2.6-0.4-0.5-0.1-0.6 0.5-0.3 0.7 0.4 1.7 0 2.3-0.8 0.6-0.8 1.6-1.2 2.2-0.8 0.8 0.4 0.7-0.1-0.2-1.1-1.4-1.6-1.3-1.7 0.2-1.2 1 0.3 2 0.1 2.3-0.4 0.3-0.6 2.2-1.7 4.2-2.6 2.1-0.8 6.5-1.7 9.8-2 3.9-0.4 7.7 0 11 1 2.7 0.8 5.4 1.2 6 0.9 0.5-0.3 0.7-0.3 0.2 0-0.4 0.4 1.4 2.6 3.9 4.9 2.6 2.4 5.7 6.3 6.9 8.8 1.2 2.5 2.8 6.9 3.4 9.7 0.7 3.2 1.1 16.3 1.1 61.3h-16l-0.2-26.8c-0.1-14.7-0.2-27.9-0.3-29.4 0-1.4-0.3-2.4-0.8-2.2-0.4 0.2-0.7-0.1-0.7-0.6 0-0.6-0.9-2.4-2-4-1.1-1.6-2.5-2.8-3-2.5-0.6 0.3-0.9 0-0.8-0.7 0.2-0.7-1.3-2-3.2-3-1.9-1-5-1.8-6.8-1.8-1.7 0-4.7 0.6-6.5 1.4-1.7 0.7-4.2 2.3-5.5 3.5-1.2 1.1-2.5 1.8-2.8 1.3-0.3-0.4-0.5-0.3-0.4 0.3 0.1 0.5-0.1 2.1-0.5 3.5-0.4 1.5-1 2-1.4 1.4-0.3-0.7-0.7 0.4-0.7 2.5-0.1 2-0.2 15.6-0.4 57.1h-16l-0.5-28.3c-0.2-15.5-0.6-29.2-0.7-30.4-0.2-1.2-0.5-2-0.8-1.8-0.3 0.3-1.4-1-2.5-2.7-1.1-1.7-3.1-4-4.5-5-1.4-1.1-4.8-2.2-7.5-2.5-3.4-0.4-6-0.1-8 0.9-1.6 0.9-3.7 1.3-4.5 1-0.9-0.2-0.7 0.2 0.5 1.2 1.7 1.3 1.7 1.5 0.2 1.1-0.9-0.3-1.8 0.1-1.8 0.7-0.1 0.7-0.1 1.5-0.1 1.8 0 0.3-0.9 0.5-2.1 0.5-1.1 0-2.2 0.7-2.4 1.5-0.4 1.3-0.3 1.3 0.6 0 0.6-0.8 1.1-1.3 1.1-1 0 0.3-0.6 2.2-1.5 4.2-1.2 3.1-1.5 9-1.5 58.8h-16v-85.5l6.7 0.5c6.7 0.5 6.8 0.6 7.1 3.5 0.2 1.6 0.8 3.4 1.2 4q0.9 1 2.2-0.2c0.7-0.7 1.7-1 2.3-0.5 0.5 0.4 0.3-0.1-0.5-1.2-0.8-1-1.1-1.7-0.5-1.5 0.5 0.2 1.9-0.2 3-0.9 1.1-0.6 2.4-0.8 2.8-0.4 0.4 0.4 0.7 0.1 0.7-0.6 0-0.6 0.7-1 1.5-0.7 0.8 0.3 1.3 0 1-0.5-0.3-0.6 1-1.4 2.7-1.9 1.8-0.5 5-1 7-1zm142.8 0.4c3.6 0.2 8 0.9 9.7 1.4 2.1 0.7 3.1 1.6 2.7 2.3-0.5 1-0.8 0.9-1.5-0.2-0.4-0.8-1.2-1.2-1.6-0.8-0.4 0.5-0.6 1-0.3 1.3 0.3 0.3 1.7 0.7 3.2 1 2.1 0.4 2.6 0.2 2.1-0.8q-0.7-1.2 1.3 0.3c1 0.8 2.9 2.3 4.1 3.5 1.2 1.1 2 2.3 1.8 2.7-0.3 0.5 0.5 0.6 1.7 0.3 1.3-0.3 2-0.2 1.6 0.2-0.4 0.5 0.1 2.4 1.2 4.3 1.1 2.1 1.7 4.5 1.3 6-0.4 1.9-0.2 2.2 0.6 1 0.8-1.2 1.2-0.6 1.8 2.7 0.4 2.3 1 4 1.3 3.8 0.3-0.2 0.4 12.2 0.2 27.6-0.2 26.8-0.3 27.9-2.2 28.9-1.1 0.5-4.8 0.9-14.5 0.5l-0.5-28.5c-0.4-22-0.8-29.1-1.9-31-0.8-1.4-1.4-2.6-1.3-2.8 0.1-0.1-0.1-0.2-0.6-0.3-0.4 0-1.8-1.1-3.2-2.4-1.4-1.3-3.7-2.9-5.3-3.4-1.5-0.6-4.1-1.1-5.7-1.1-1.6 0-3-0.3-3-0.8 0-0.4 1.7-0.5 3.8-0.3 2.1 0.2 3.3 0 2.9-0.5-0.5-0.5-2.6-0.9-4.8-0.9-2.7 0-3.8 0.4-3.4 1.2 0.3 0.8-0.7 1.5-2.8 1.9-1.7 0.4-4.2 1.3-5.5 2-1.3 0.8-1.9 1.9-1.5 2.6 0.3 0.7 0.2 1-0.3 0.5-0.5-0.4-1.9 0.3-3.2 1.5-1.2 1.3-2.2 2-2.2 1.5 0-0.4 0.7-1.4 1.6-2.2 1.4-1.4 1.4-1.5 0-1.5-0.9 0-1.7 0.8-1.9 1.7-0.2 1 0 2.8 0.5 4 0.5 1.5 0.4 2.1-0.2 1.8-0.7-0.3-1 9.2-1 27.5 0 27-0.1 28-2 29-1.1 0.5-4.9 1-15 1v-41c0-27 0.3-40.8 1-40.5 0.5 0.3 1.1-0.1 1.1-0.8 0.1-0.6 0.1-1.5 0-2 0-0.4 2.8-0.7 12.9-0.7l0.5 3.5c0.3 1.9 1 3.5 1.5 3.5 0.5 0 2.9-1.3 5.2-2.9 2.4-1.5 6.3-3.6 8.8-4.4 3.1-1.2 6.6-1.5 11-1.2zm87-0.1c4.1 0.2 9.4 1.1 11.7 2 2.4 0.9 4.1 2 3.8 2.6-0.3 0.5 0.2 0.8 1 0.5 0.9-0.3 3.5 1.4 6.2 3.9 3.9 3.6 4.8 5.1 4.8 7.8 0 2.5 0.5 3.4 2 3.7 1.5 0.3 1.8 0.1 1.2-1-0.5-0.8-0.1-0.5 0.8 0.6 0.8 1.1 1.3 2.6 1 3.2-0.3 0.7 0 1.3 0.5 1.3 0.5 0 1.2 0.8 1.5 1.7 0.3 1 0 2.1-0.7 2.5-0.9 0.6-0.8 0.8 0.4 0.8 1.3 0 2.1 1.3 2.8 5 0.5 2.7 1 6.8 1 9 0 3-0.5 4.4-2.3 5.5-1.8 1.3-6.9 1.5-30.3 1.5-15.4 0-28.4 0.3-28.8 0.7-0.4 0.5-1.3 0.8-1.9 0.8-0.7 0-1.3 0.9-1.7 4l1.9-4v2c0.1 1.1 1 3.8 2.1 6 1.1 2.2 2 4.1 2 4.2 0 0.2-0.6 0-1.3-0.4-0.6-0.3-0.9-0.3-0.5 0 0.5 0.4 1 0.7 1.3 0.7 0.3 0 2.2 1.2 4.2 2.7 2.1 1.5 5.4 3.3 7.3 4.1 1.9 0.8 5.7 1.4 8.5 1.3 2.7 0 6.2-0.5 7.7-1.1 1.8-0.6 2.5-1.4 2-2.2q-0.7-1.3 0.5-0.5c0.7 0.4 2.5-0.2 4-1.3 1.6-1.1 3.2-1.6 3.6-1.2 0.5 0.4 0.7 0.1 0.5-0.7-0.2-0.8 0.6-1.7 1.7-1.9 1.1-0.2 3-0.1 4.2 0.2 1.3 0.3 2.1 1.1 1.8 1.6-0.3 0.5 0.2 0.8 1 0.5 0.8-0.3 2.6 0.2 4 1 1.4 0.8 2.5 2.2 2.5 3 0 0.8-1.7 3.4-3.8 5.6-2 2.3-5.6 5.3-8 6.8-2.3 1.4-4.5 2.3-4.7 1.8-0.3-0.4-1.2 0-2.1 0.8-0.8 0.8-2.3 1.5-3.2 1.4-1 0-1.2-0.2-0.5-0.5 0.7-0.2 1.3-1 1.3-1.7-0.1-0.6-1-0.1-2.1 1.3-1.9 2.3-2.8 2.5-9.8 2.4-4.6 0-10-0.8-13.6-1.9-3.3-1.1-6.5-1.9-7.1-2-0.6 0-1-0.3-0.8-0.8 0.2-0.4-0.5-1.2-1.6-1.7-1.1-0.5-1.8-1.2-1.5-1.5 0.3-0.3 1.1-0.2 1.7 0.2 0.7 0.4 1.9 0.9 2.5 1 0.7 0.2 1.5 0 1.7-0.5 0.2-0.4-0.2-0.8-1-1-0.8-0.1-2.7-0.3-4.3-0.5-1.6-0.1-4.1-1.3-5.6-2.7-1.5-1.4-3.9-4.6-5.3-7.2-1.5-2.5-3.2-4.4-3.7-4-0.6 0.4-0.7 0.2-0.3-0.6 0.5-0.6 0.2-3.3-0.5-5.8-1-3.9-1-4.7 0.3-5.5 1.2-0.7 1.1-0.9-0.5-0.9-1.9 0-2-0.4-1.4-10.2 0.5-7.5 1.4-12.1 3.2-16.8 1.4-3.6 2.4-6.8 2.1-7.3-0.2-0.4-0.1-0.6 0.3-0.5 0.5 0.2 3.2-2.3 6.2-5.5 3-3.1 5.9-5.7 6.5-5.7 0.6 0-0.1 0.9-1.7 2-1.5 1.1-2.7 2.4-2.7 3 0 0.5 1.3-0.2 2.9-1.8 1.7-1.5 2.8-3 2.5-3.5-0.2-0.4 1-1.4 2.6-2.2 1.6-0.8 3.3-1.5 3.7-1.5 0.5 0-0.1 0.6-1.2 1.4-2 1.5-2 1.5 0.2 1.1 1.4-0.3 2.3 0 2.3 0.7q0 1.3 1-0.2c0.5-0.9 0.5-2-0.1-2.8-0.7-0.9 0.1-1.5 2.8-2.2 2.1-0.5 7.2-0.8 11.3-0.6zm-11.8 19.9c-1.7 1-4.3 3.4-5.7 5.4-1.3 2.1-2.6 4.9-2.7 6.3l-0.3 2.5 37.5 0.5c-1-3.5-2.1-6.1-3.2-8-1-1.9-3.5-4.6-5.6-6-2-1.4-3.9-2.7-4.2-3-0.3-0.3-3.2-0.3-6.5 0.1-3.3 0.3-7.5 1.3-9.3 2.2zm102.3-20.2c3.3-0.1 6.7 0.7 10 2.3 2.8 1.3 7 4.5 9.5 7.3 2.9 3.3 5.1 4.9 6.2 4.7 1-0.2 1.6-0.7 1.4-1.2-0.2-0.4 0.3-1.6 2.7-4.7l-1.3 4 1.5-2c0.8-1.1 1.2-2.3 1-2.8-0.3-0.4 1.5-1.8 4-3.2 2.5-1.4 5-2.2 5.7-1.8q1.3 0.8 0.5-0.5c-0.5-0.8 0.3-1.4 2.5-1.7 1.8-0.3 5-0.5 7-0.5 2.1 0 6.4 0.9 9.5 2.1 4.3 1.6 5.4 2.3 4.3 3-0.8 0.5-1.2 0.9-0.8 0.9 0.5 0 1.8-0.5 3-1.1 1.3-0.7 2-0.8 1.5-0.3-0.4 0.5 0.7 2.4 2.5 4.3 1.8 1.9 2.7 3.1 2 2.8-0.6-0.4-1.2-0.3-1.2 0.3 0 0.5 0.7 1 1.5 1 0.8 0 2.2 1.5 3.1 3.2 0.8 1.8 1.3 3.9 1 4.5-0.3 0.7-0.1 1.1 0.4 0.8 0.5-0.3 1.5 1.7 2 4.5 0.5 2.7 1 17 1 31.7 0 19.7-0.3 27.1-1.2 28-0.7 0.8-4 1.3-15.8 1.3v-28c0-27.9 0-28-2.5-33-1.4-2.8-4-6-5.8-7.2-1.7-1.2-5-2.4-7.2-2.6-2.4-0.2-5.5 0.2-7.8 1.2q-3.7 1.6-3 2.8c0.5 0.8 0.4 1-0.2 0.6-0.6-0.4-1.8 0.1-2.8 1.2-0.9 1.1-1.5 2.4-1.2 3 0.3 0.5-0.1 0.9-0.8 0.7-0.8-0.1-1.1 0.8-1 2.8 0.2 2.1 0 2.5-0.6 1.5-0.7-1.1-1-0.8-1.4 1.5-0.3 1.6-0.5 9.7-0.5 18 0 8.2 0 20.1-0.2 37.5l-15.5-0.5-0.5-28c-0.3-15.4-0.9-28.8-1.3-29.8-0.4-0.9-0.2-2.5 0.5-3.5 1.2-1.5 1.1-1.6-0.5-0.5-1.4 1.1-1.8 1-2.2-0.2-0.3-0.8-1-1.3-1.5-1-0.5 0.3-0.9 0.2-0.9-0.3 0.1-0.4 0.1-1.2 0-1.7 0-0.6-2-2.1-4.3-3.4-3.6-2-5.1-2.3-9.6-1.8-4.7 0.6-5.1 0.5-4.5-1.1 0.3-0.9 0.4-1.5 0.2-1.2-0.3 0.3-1.1 1.4-1.9 2.4-1.3 1.8-1.3 1.9 0 1.1 0.8-0.5-0.4 0.9-2.8 3.3-2.3 2.3-4.2 4.8-4.2 5.4 0 0.7-0.3 1-0.7 0.6-0.4-0.4-0.3-1.3 0.4-2 0.9-1 0.8-1.3-0.3-1.3-0.8 0-1.4 0.7-1.4 1.5-0.1 0.8-0.8 2.1-1.8 2.8-0.9 0.8-1.1 1.1-0.5 0.8 0.8-0.4 1.5 0.3 1.8 1.6 0.3 1.3 0.5 14.1 0.5 28.5 0 25.3-0.1 26.3-2 27.3-1.1 0.5-4.8 0.9-14.5 0.5l-0.5-85 6.2 0.3c3.5 0.2 6.9 0.9 7.6 1.5 0.9 0.8 1.2 2.2 0.8 3.9-0.6 2.6-0.4 2.8 2.4 2.8 1.7 0 2.8-0.4 2.5-1-0.3-0.6 0-1.2 0.5-1.5 0.5-0.3 1 0.1 1 0.7 0 0.7 0.3 1 0.7 0.6 0.4-0.4 0.1-1.5-0.7-2.5-0.8-0.9-1-1.4-0.5-1 0.5 0.3 2.2-0.2 3.8-1.1 1.5-0.9 2.4-2.1 2-2.5-0.5-0.5-0.1-0.6 0.7-0.3 0.8 0.3 2.9 0.2 4.5-0.3 1.6-0.5 5.2-1 8-1zm-358.8 21.4c0.2 11.5 0.2 30.7 0 42.5-0.1 11.8-0.2 2.4-0.2-21 0-23.4 0.1-33.1 0.2-21.5z"/>
		<path id="Path 17" class="s5" d="m449.4 519c0 13.5 0.2 18.9 0.3 12 0.2-6.9 0.2-17.9 0-24.5-0.1-6.6-0.3-1-0.3 12.5z"/>
		<path id="Path 18" class="s6" d="m127.5 512.5c0 19.3 0.1 26.9 0.2 17 0.2-9.9 0.2-25.6 0-35-0.1-9.4-0.3-1.3-0.2 18zm691.8-15c0 3.9 0.2 5.2 0.4 3 0.2-2.2 0.2-5.4 0-7-0.2-1.6-0.4 0.1-0.4 4zm0.1 26.5c0 6.9 0.1 9.6 0.3 6 0.2-3.6 0.2-9.2 0-12.5-0.2-3.3-0.3-0.4-0.3 6.5z"/>
		<path id="Path 19" class="s7" d="m157.3 518.5c0 4.4 0.2 6 0.4 3.5 0.2-2.5 0.2-6.1 0-8-0.2-1.9-0.4 0.1-0.4 4.5zm0.1 22.5c0 8 0.2 11.4 0.3 7.5 0.2-3.9 0.2-10.4 0-14.5-0.1-4.1-0.3-1-0.3 7zm-0.1 22c0 4.1 0.2 5.9 0.4 4 0.2-1.9 0.2-5.3 0-7.5-0.2-2.2-0.4-0.6-0.4 3.5zm0 14.5c0 3.9 0.2 5.2 0.4 3 0.2-2.2 0.2-5.4 0-7-0.2-1.6-0.4 0.1-0.4 4z"/>
		<path id="Path 20" class="s8" d="m219.5 409.7c2.8 0.2 6.8 0.2 9 0 2.2-0.2-0.1-0.3-5-0.3-4.9 0-6.8 0.1-4 0.3z"/>
		<path id="Path 21" class="s9" d="m158.5 554c0 24.5 0.1 34.6 0.2 22.5 0.2-12.1 0.2-32.1 0-44.5-0.1-12.4-0.2-2.5-0.2 22z"/>
		<path id="Path 22" class="s1" d="m460.7 461.8c0.6 1.4 0.4 1.5-0.8 0.5-1.1-1-2-0.9-4.1 0.2-1.6 0.8-3.1 1.2-3.4 0.7-0.3-0.4-0.3 0.1 0 1 0.4 1.1 1.2 1.6 2.1 1.3 0.9-0.3 1.2-1 0.8-1.7-0.6-0.9-0.3-1 1-0.5 1 0.4 1.9 0.2 2.1-0.6 0.4-1 0.5-1 0.5 0 0.1 0.7 0.8 1.3 1.6 1.3 0.8 0 1.5-0.9 1.5-2 0-1.1-0.4-2-1-2-0.5 0-0.6 0.8-0.3 1.7zm86.3-0.1c-1.9 0.7-2.8 1.4-2 1.5 0.8 0.1 2.6 0.3 4 0.4 1.4 0.2 3-0.4 3.6-1.4 0.9-1.3 0.8-1.6-0.5-1.7-0.9 0-3.2 0.5-5.1 1.2zm-162.4 0.2c-0.2 0.4 0.6 0.8 1.7 0.9 1.2 0.1 3.1 0.4 4.1 0.5 1 0.2 2-0.2 2.2-0.7 0.2-0.6-1.4-1.1-3.6-1.2-2.2-0.2-4.1 0.1-4.4 0.5zm138.9 0.8c1.3 0.9 2.3 1 3 0.4 0.5-0.6 1.9-0.7 3-0.3 1.2 0.5 1.7 0.4 1.3-0.2-0.3-0.6-2.6-1.1-5-1.1-3.9-0.2-4.1-0.1-2.3 1.2zm180.9-0.9c-0.4 0.4-0.7 1-0.6 1.5 0.1 0.4 1.9 0.7 4.1 0.5 2.1-0.1 3.7-0.7 3.5-1.2-0.2-0.6-1.7-1.1-3.3-1.2-1.6-0.1-3.3 0.1-3.7 0.4zm210.1 33.8c0.3 0.8-0.2 1.7-1 2-0.8 0.3-1.2 1.1-0.9 1.7 0.5 1 0.9 0.9 1.6-0.2 0.7-1.1 0.8-0.9 0.6 1-0.2 1.4-0.9 2.4-1.6 2.2-0.8-0.1-1 0.6-0.7 2 0.3 1.3 0.9 2.7 1.3 3.3 0.4 0.6 0.2 0.7-0.6 0.2-0.9-0.5-1.2 0.3-1.2 2.8 0 1.9 0.5 3.7 1 4 0.5 0.3 1.3-0.1 1.7-0.8q0.8-1.2-0.5-0.5c-0.6 0.5-1.2 0.3-1.2-0.2 0-0.5 0.6-1.2 1.3-1.4 1-0.4 1-0.5 0-0.5-0.7-0.1-1.3-0.5-1.3-1.1 0-0.6 0.5-0.8 1-0.5 0.5 0.3 1.1 0.2 1.1-0.3 0.1-0.4 0.3-3.7 0.5-7.4 0.2-3.7-0.1-7-0.6-7.3-0.6-0.3-0.8 0.2-0.5 1zm-233.5 1.2c-0.8 0.2-1.3 1.5-1.2 2.9 0.1 1.3 0.7 2.6 1.2 2.9 0.5 0.3 0.8 0.9 0.5 1.5-0.3 0.6 0 1.2 0.5 1.5 0.5 0.3 1.3-0.2 1.8-1 0.4-1 0-2.1-1.3-3-1.1-0.8-1.3-1.3-0.5-1 1.1 0.3 1.4-0.2 1.2-2-0.1-1.4-0.4-2.5-0.5-2.4-0.1 0-0.9 0.3-1.7 0.6zm-38 1c1.9 0.2 5.3 0.2 7.5 0 2.2-0.2 0.6-0.4-3.5-0.4-4.1 0-5.9 0.2-4 0.4zm-37.1 5.3c0 3 0.2 5.3 0.4 5 0.1-0.3 0.9-1.4 1.7-2.4 1-1.3 1.1-1.7 0.3-1.3-0.9 0.5-1.2-0.1-1-2.2 0.1-1.6-0.2-3.3-0.6-3.8-0.4-0.4-0.8 1.7-0.8 4.7zm106.9 11.7c-0.1 1 0 4.9 0.3 8.8l0.5 7c0.3-13.6 0.2-17.5 0-17.5-0.2 0-0.6 0.8-0.8 1.7z"/>
		<path id="Path 23" class="s10" d="m216 509.8l0.5 18.7c0.4-27.9 0.2-36.3-0.3-36.7-0.4-0.4-0.5 7.7-0.2 18zm15.5-17.5c-0.2 0.7-0.3 9.1-0.2 18.7l0.2 17.5c0.8-29.1 0.9-37.5 0.7-37.5-0.1 0-0.4 0.6-0.7 1.3zm-56.1 70.7c0 19 0.2 26.9 0.3 17.5 0.2-9.4 0.2-24.9 0-34.5-0.1-9.6-0.3-2-0.3 17z"/>
		<path id="Path 24" class="s11" d="m624.8 494.2c0.4 0.5 9.5 0.7 20.2 0.5l19.5-0.2c-31.3-0.8-40.1-0.7-39.7-0.3z"/>
		<path id="Path 25" class="s2" d="m219 408.7c2.5 0.2 6.1 0.2 8 0 1.9-0.2-0.1-0.4-4.5-0.4-4.4 0-6 0.2-3.5 0.4zm41 8.8c0 0.3 2.1 1.7 4.8 3.2 2.6 1.5 8.1 5.6 12.2 9.2 4.1 3.5 6.4 5.2 5 3.7-1.4-1.5-5.4-5.2-9-8.1-3.6-2.9-7.9-6-9.7-6.9-1.8-0.9-3.2-1.4-3.3-1.1zm-77.1 30.3c-3 3.1-6.1 6.6-6.9 7.7-0.8 1.1-0.9 1.6-0.4 1 0.6-0.6 3.9-4 7.4-7.7 3.4-3.8 6.1-6.8 5.9-6.8-0.3 0-3 2.6-6 5.8zm37.6-0.1c1.6 0.2 4.8 0.2 7 0 2.2-0.2 0.8-0.4-3-0.4-3.9 0-5.7 0.2-4 0.4zm-13.7 29.6c-3.2 3.4-5.8 6.6-5.8 7.2 0 0.6 1-0.4 2.2-2 1.2-1.6 4.1-4.9 6.5-7.2 2.4-2.4 4-4.3 3.6-4.3-0.4 0-3.4 2.8-6.5 6.3zm12.6 6.5c-0.4 0.4 1.1 0.6 3.2 0.3 2.5-0.2 5 0.3 6.9 1.4l3 1.7c-4-3.3-6.4-4.2-8.7-4.2-2 0-4 0.3-4.4 0.8zm444.1 6.5l0.5 2.7c-36.3 0-38-0.2-38.4-1.7-0.3-1.3-0.4-1.1-0.5 0.5l-0.1 2.2c38.4 0 40-0.1 40-1.7 0-1-0.5-2.5-1-3.3-0.8-1.1-0.9-0.8-0.5 1.3zm-449.3 17c-0.1 9.7-0.5 17.7-1 17.7-0.4 0.1-1.5-0.9-2.4-2.2-0.9-1.3-1.7-1.8-1.8-1.3 0 0.5 1.1 2.1 2.5 3.5 1.4 1.4 2.7 2.3 3 2 0.3-0.3 0.4-8.8 0.2-19l-0.2-18.5zm18.9 2.5l-0.2 17.3c12-12.7 17.8-18.4 20.5-20.8 2.8-2.5 4.1-4.1 3-3.5-1.1 0.6-6.6 5.7-12.2 11.4l-10.2 10.4-0.6-32zm-66.2-9.8c-1.3 0.5-2.3 1.2-2.2 1.5 0.1 0.3 1.4 0 2.9-0.6 1.5-0.5 5.7-0.9 9.4-0.7 3.7 0.2 6.5 0 6.3-0.4-0.3-0.5-3.5-0.8-7.2-0.7-3.7 0-7.8 0.4-9.2 0.9zm111.4 0c0.3 0.6 1.2 1 2 1 0.9 0 3.5 1.7 5.8 3.7 2.4 2.1 3.4 2.7 2.2 1.3-1.1-1.4-2.6-3-3.5-3.7-0.8-0.7-2.7-1.7-4.2-2.3-1.8-0.6-2.6-0.6-2.3 0zm-89.5 2.1c0.3 0.3 4.8 4.5 10 9.4l9.5 9c-12.4-12.9-16.9-17.1-18-17.7-1.1-0.6-1.7-0.9-1.5-0.7zm101.5 50.9c0 24.5 0.1 34.6 0.3 22.5 0.2-12.1 0.2-32.1 0-44.5-0.2-12.4-0.3-2.5-0.3 22zm-27-26.7l-4 4.2c6.3-5.8 8.7-7.5 9.4-7.5 0.9 0 1.1 9 1.1 36.5 0 30.4 0.3 37 1.5 39.5 0.9 1.6 1.8 3 2 3 0.3 0-0.1-1.4-1-3-1.2-2.5-1.5-9.1-1.5-40 0-35 0-37-1.8-37-0.9 0-3.5 1.9-5.7 4.3zm-65 15.2c9.9 10.2 18.3 18.6 18.5 18.6 0.3 0-7.6-8.4-17.5-18.6-9.9-10.1-18.2-18.5-18.5-18.5-0.2 0 7.6 8.3 17.5 18.5zm-21.2 19.8c-0.1 20.2-0.5 37.5-0.8 38.5-0.6 1.6-0.6 1.6 0.5 0 0.7-1.2 1-13.6 0.8-38.5l-0.3-36.8zm62.7-11.7c-4.1 4.1-7.2 7.5-6.8 7.5 0.3 0 3.8-3.3 7.7-7.3 4-4 7-7.3 6.9-7.5-0.2-0.1-3.7 3.2-7.8 7.3z"/>
		<path id="Path 26" class="s3" d="m208.5 411.5c-3.3 0.7-9.2 2.6-13 4.2-3.8 1.6-9.9 4.9-13.5 7.3-3.6 2.4-9.2 7.1-12.5 10.5-3.3 3.3-7.5 8-9.2 10.5-1.7 2.5-4.5 7.4-6.2 11-1.7 3.6-3.1 7.5-3.1 8.8 0 1.2 0.5 3.2 1.2 4.4 0.6 1.3 1.8 2.8 2.7 3.5 0.9 0.7 2.9 1.3 4.6 1.3 1.7 0 3.9-0.6 5-1.3 1.1-0.8 4.3-5.4 7-10.2 3.6-6.3 7.1-10.8 12.5-15.8 5.3-5 9.9-8.2 15.5-10.9 4.4-2.1 10.7-4.3 14-4.9 3.3-0.6 10.1-0.9 15-0.7 4.9 0.3 7.9 0.2 6.5-0.3-1.4-0.4-6.3-0.7-11-0.8-5.2-0.1-10.6 0.5-14 1.5-3 0.9-8.2 3-11.5 4.6-3.3 1.6-8.6 5.1-11.9 7.6-3.2 2.6-7.9 7.4-10.3 10.7-2.5 3.3-5.6 8.3-7 11-1.4 2.8-3.5 5.8-4.7 6.7-1.1 1-3.3 1.8-4.8 1.8-1.7 0-3.8-1-5.3-2.5-1.4-1.4-2.5-3.5-2.5-4.7 0-1.3 1.1-4.8 2.3-7.8 1.3-3 3.9-8 5.9-11 2-3 6.1-8 9-11 2.9-3 8.3-7.6 11.8-10.1 3.6-2.6 9.4-5.9 13-7.4 3.6-1.5 8.8-3.4 11.5-4.2 2.8-0.8 10.2-1.8 16.5-2.2l11.5-0.8c-14.7-0.1-21.7 0.5-25 1.2zm40 3.3c4.4 1.5 10.5 4.2 13.5 5.9 3 1.8 7.6 4.9 10.1 7 2.5 2.1 7 6.5 10 9.9 3 3.4 7.3 9.4 9.7 13.5 2.3 4.1 4.5 9.2 4.9 11.4 0.5 3.4 0.3 4.4-2 6.8-1.5 1.5-3.7 2.7-5.2 2.7-1.4 0-3.3-0.4-4.2-0.9-1-0.5-4-4.6-6.7-9.2-3-5.1-7.9-11.3-12.5-16-5.8-5.7-9.7-8.5-16.1-11.7-4.7-2.4-9.4-4.2-10.5-4.2-1.1 0 1.4 1.4 5.5 3 4.1 1.7 10.4 5.2 14 7.9 3.6 2.8 8.5 7.5 11 10.5 2.5 3.1 6.3 8.6 8.6 12.3 2.3 3.8 5.2 7.4 6.5 8.2 1.6 0.9 3.7 1.2 6.2 0.7 2.8-0.4 4.1-1.3 5.2-3.6 0.8-1.6 1.5-4.2 1.5-5.8 0-1.5-1.9-6.1-4.1-10.2-2.3-4.1-6.4-10.4-9.3-13.9-2.8-3.5-7.3-8.3-10.1-10.6-2.7-2.4-7.2-5.7-10-7.4-2.7-1.7-8.5-4.5-12.7-6.1-4.3-1.7-8.6-3-9.5-3-1 0.1 1.8 1.3 6.2 2.8zm-31 34.3c-2.7 0.5-7.8 2.2-11.2 3.9-3.5 1.6-8.6 5.1-11.4 7.8-2.8 2.6-6 6.4-7 8.5-1.1 2-1.9 5.5-1.9 7.7 0 2.9 0.6 4.6 2.3 6 1.2 1.2 3.3 2.4 4.7 2.7 1.4 0.3 3.7-0.1 5.1-0.8 1.5-0.8 4.6-3.8 7-6.8 2.4-3 6.2-6.3 8.4-7.5 2.3-1.2 6.5-2.2 10-2.4 4.8-0.3 6.9 0.1 10.5 2 2.6 1.3 5.9 4.2 7.7 6.8 1.8 2.5 3.9 5.3 4.8 6.3 0.8 0.9 2.7 2 4.3 2.3 1.5 0.4 3.8 0.3 5.1-0.2 1.3-0.5 3.3-2 4.3-3.4 1.1-1.4 2-3.9 2-5.5 0-1.6-0.9-4.8-2-7-1.1-2.2-4-5.8-6.4-8.1-2.4-2.2-5.6-5.1-7.3-6.3-1.7-1.2-5.7-3-9-4.1-3.3-1-8-2.1-10.5-2.3-2.5-0.3-6.7-0.1-9.5 0.4zm671 11.4c3.9 1.4 9.4 4.4 12.4 6.8 3.1 2.5 6.9 6.8 9.2 10.7 2.2 3.6 4.6 8.8 5.4 11.5 0.9 2.8 1.5 8.6 1.5 13 0 5.5-0.6 9.9-2 14-1.2 3.3-3.1 7.8-4.4 10-1.3 2.2-4.6 6.1-7.2 8.6-2.7 2.5-6.8 5.5-9.1 6.7-2.4 1.2-6.7 2.9-9.5 3.7-5.2 1.5-5.2 1.5-1 1 2.3-0.3 6.6-1.7 9.5-3.1 2.8-1.5 7.2-4.3 9.6-6.3 2.5-2 6-5.8 7.8-8.6 1.8-2.8 4.2-7.9 5.3-11.5 1.4-4.3 2-9.3 2-14.8 0-5.6-0.7-10.1-2.1-14.4-1.2-3.5-3.7-8.7-5.8-11.7-2-3-5.8-7.3-8.6-9.4-2.7-2.2-7.4-5.1-10.2-6.3-2.9-1.3-6.3-2.4-7.5-2.4-1.3 0 0.8 1.2 4.7 2.5zm-253 15c-3.4 1.7-6 4-8.2 7.2-1.8 2.7-3.4 6-3.7 7.6-0.4 1.5 0 3.4 0.7 4.2 1 1.3 4.2 1.6 20.2 1.5 10.5 0 19.5-0.4 20.2-0.8 0.6-0.4-8.1-0.6-19.3-0.4-15.5 0.1-20.5-0.1-21-1-0.3-0.7-0.1-2.9 0.5-4.8 0.6-1.9 2.4-5.2 4.1-7.4 1.6-2.1 4.9-4.7 7.2-5.7 2.4-1 6.2-1.9 8.6-1.9 2.3 0 5.4 0.5 7 1.2 1.5 0.7 4.2 2.4 6.1 3.8 2.1 1.5 4.6 5 6.3 8.5 1.6 3.3 2.6 4.9 2.2 3.5-0.4-1.4-1.5-4.1-2.4-6-1-1.9-3.1-4.7-4.7-6.2-1.5-1.5-4.5-3.4-6.5-4.2-2.1-0.9-5.7-1.6-8-1.6-2.6 0-6.3 1-9.3 2.5zm-415.2 9.5c-1.2 0.4-2.7 1.6-3.5 2.5-0.9 1.3-1.4 6.9-1.6 21.2-0.1 10.6-0.4 19.3-0.7 19.3-0.3 0-5.8-5.4-12.3-12-8-8.2-13-12.6-15.7-13.6-2.8-1.1-6.5-1.5-12.3-1.2-8.2 0.3-8.4 0.4-11.8 4.1l-3.4 3.7-0.1 89.5c4.4 4.7 6.1 5.5 8.6 5.5 2.3 0 4.5-0.8 6.2-2.4l2.8-2.4c0.5-74.6 0.6-77.2 2.2-77.2 1-0.1 8.1 6.3 15.9 14.2 7.8 7.9 15.6 16 17.3 18.1 1.7 2 3.5 3.7 4.1 3.7 0.6 0-7-8.3-16.8-18.5-14.6-15.3-18.2-18.5-20.5-18.5-1.9 0-2.7 0.5-2.8 1.8 0 0.9 0 17.8 0 37.5 0.1 28.2-0.2 36.3-1.3 38.5-0.7 1.5-2.1 3-3 3.5-0.9 0.4-2.7 0.7-4.1 0.7-1.4 0-3.6-1.1-5-2.5l-2.5-2.5c0-82 0.2-88.8 1.5-90.8 0.8-1.2 2.8-2.9 4.5-3.7 1.9-0.9 5.8-1.5 10.2-1.5 4.9 0 8.6 0.7 11.3 1.9 2.5 1.1 8.1 6.1 15 13.4 6.1 6.5 11.6 11.7 12.2 11.7 1 0 1.3-4.3 1.3-18.3 0-12.7 0.4-19 1.3-20.7 0.7-1.4 2.2-2.9 3.4-3.5 1.1-0.6 2.4-1.3 2.9-1.7 0.4-0.5 0.3-0.8-0.2-0.7-0.5 0-1.9 0.4-3.1 0.9zm6.2 0.9c1.1 0.5 2.7 1.6 3.5 2.6 1.2 1.4 1.6 6 2.1 20.9l0.6 19.1-0.2-39.7c-3.9-3-5.7-3.8-6.5-3.8q-1.5 0.1 0.5 0.9zm33 17c-2.2 1-8.1 6.1-13 11.2-5 5.2-9.9 10.5-11 11.9-1.1 1.4 3.5-2.9 10-9.6 9.2-9.2 12.9-12.3 16-13.2 2.2-0.6 7-1.2 10.7-1.2 4.1 0 8 0.6 9.8 1.5 1.6 0.8 3.7 2.5 4.5 3.8 1.3 1.9 1.5 8.7 1.5 46.2 0 42.7 0 44.1-2 46.3-1.3 1.4-3.2 2.2-5.3 2.2-2 0-4-0.8-5.4-2.2-2.2-2.3-2.2-2.6-2.5-40.8l-0.3-38.5c-5.7-0.6-7.7 1.2-24.3 18.5l-18.2 19-12.5 0.6 12.5 0.4c33.1-34.3 37.2-38 39.3-38h2.7v77c4.2 4.2 6.1 5 8.5 5 2.5 0 4.3-0.8 6-2.5l2.5-2.5c0-84.1-0.2-88.3-1.8-91-0.9-1.7-3.2-3.7-5-4.5-1.9-0.9-6.2-1.5-11-1.5-5.4 0-8.9 0.6-11.7 1.9z"/>
		<path id="Path 27" fill-rule="evenodd" class="s4" d="m226.5 411.5c6.9 0.2 13.7 1.2 18.3 2.4 3.9 1.2 7.8 1.8 8.4 1.4q1.3-0.8 0.5 0.5c-0.4 0.6-0.3 1.2 0.3 1.2 0.6 0 0.8 0.4 0.5 1-0.3 0.6 0.2 0.7 1.2 0.3 1.4-0.6 1.6-0.5 0.8 0.7-0.7 1.1-0.7 1.3 0.3 0.8 0.6-0.5 2.6-0.1 4.2 0.7 1.6 0.8 3.4 1.3 4 1 0.6-0.3 0.8 0.4 0.5 1.5-0.3 1.1-0.1 1.8 0.5 1.5 0.6-0.3 2.1 0.4 3.5 1.5 1.4 1.1 2.9 1.8 3.5 1.5 0.6-0.3 0.8 0.6 0.5 2.3-0.2 1.5-0.2 2.1 0 1.5 0.4-0.9 0.9-1 2-0.3 0.8 0.6 1.3 1.4 1 2-0.3 0.6 0.1 0.9 0.7 0.8 0.7-0.2 1.2 0.3 1 1-0.1 0.6 0.2 1 0.8 0.7 0.6-0.3 2.6 1.4 4.5 3.8 2 2.3 3.3 4.8 3 5.5-0.3 0.6 0.1 1.1 0.7 1 0.7-0.2 1.3 0.4 1.3 1.3 0 0.9 0.3 1.5 0.7 1.3 0.5-0.2 2.4 2.9 4.3 6.9 1.9 3.9 3.5 8.2 3.5 9.4 0 1.3-1.1 3.4-2.5 4.8-1.3 1.4-3.4 2.5-4.7 2.5-1.3 0-3.2-0.6-4.3-1.3-1.1-0.8-4.1-4.8-6.8-9-2.6-4.2-4.4-8-4-8.4 0.5-0.4 0-0.1-1 0.7-1.7 1.3-1.8 1.3-1.3 0 0.4-0.9-0.7-2.8-2.8-5-2-1.9-3.2-3.9-2.9-4.5 0.3-0.6 0.2-0.7-0.3-0.2-0.5 0.4-1.9-0.3-3.1-1.5-1.2-1.3-1.9-2.7-1.5-3.3 0.4-0.6 0.2-0.7-0.6-0.2-0.7 0.4-3.3-0.7-6.2-2.5-2.8-1.8-5.1-3.4-5-3.5 0-0.2 0.7-0.1 1.5 0.2 0.8 0.3 1.3 0.1 1-0.5-0.3-0.6-1.5-0.9-2.8-0.8-1.2 0.1-4.5-0.6-7.2-1.4-2.8-0.9-6.6-2-8.5-2.4-1.9-0.3-5.3-0.6-7.5-0.6-2.4 0-4.8-0.6-6-1.6-1.9-1.6-1.9-1.6-0.5 0.1 1.4 1.7 1.3 1.8-2 1.7-1.9 0-5.9 0.7-8.8 1.5-2.8 0.8-5 1.8-4.8 2.3 0.2 0.4-1.1 0.7-2.9 0.7-1.8 0-3.1 0.3-2.9 0.8 0.2 0.4 0.1 0.7-0.4 0.7-0.4 0-2.8 1.3-5.5 3-2.8 1.8-4.5 3.5-4.1 4.3 0.3 0.6-0.2 0.3-1.1-0.8-1.6-1.9-1.6-1.9-1.3-0.1 0.2 1-0.4 2.1-1.2 2.4-1.1 0.5-1.3 0.2-0.5-0.8 0.7-1.1 0.6-1.3-0.3-0.7-0.6 0.4-1 1-0.7 1.5 0.2 0.4-0.5 1.6-3.7 4.7l0.8-2c0.4-1.1 0.4-1.8 0.1-1.5-0.4 0.3-0.8 1.2-1 2-0.2 0.8-0.9 2.6-1.7 4-0.8 1.4-1.3 2.8-1.2 3.3 0.1 0.4-0.2 0.5-0.8 0.2-0.6-0.3-0.8-1.2-0.5-2 0.3-0.8 0.1-1.3-0.5-1-0.6 0.3-0.8 1.1-0.6 1.8 0.2 0.6-0.5 2.7-1.5 4.5-1.1 1.7-1.7 3.5-1.5 4 0.2 0.4-0.2 0.7-0.9 0.7-0.9 0-1-0.5-0.4-1.7 0.6-1.1 0.5-2-0.1-2.3-0.6-0.3-1.1 0.1-1.2 0.8 0 0.6-0.2 2.5-0.2 4-0.1 1.5-0.8 3.2-1.6 3.7-0.8 0.5-1.9 0.6-2.5 0.2-0.6-0.4-0.7-0.2-0.2 0.6 0.4 0.6 1.1 1 1.7 0.7 0.6-0.3 1-0.2 1 0.3 0 0.4-1.2 1.5-2.7 2.4-1.6 0.9-4.4 1.6-6.5 1.5-2-0.1-3.6-0.4-3.6-0.7 0.1-0.3-0.1-1.2-0.5-2-0.3-0.8-0.8-2.6-1.1-4-0.3-1.6 0.6-4.8 2.7-9.3 2.2-4.6 3.5-6.4 4-5.5 0.6 0.8 0.7 0.6 0.3-0.7-0.5-1.4 0.3-3.2 2.4-5.7 1.8-2.3 2.7-4.3 2.2-5-0.4-0.8-0.3-1 0.3-0.6 0.6 0.4 1.9-0.1 3-1.2 1.1-1.1 2.3-1.7 2.7-1.5 0.5 0.3 0.7-0.1 0.5-0.7-0.1-0.7 0.4-1.2 1-1 0.7 0.1 1.1-0.1 0.8-0.5-0.2-0.5 0.7-1.8 2-3 1.5-1.4 3-2 3.7-1.5q1.3 0.7 0.5-0.5c-0.4-0.8 0-1.7 0.8-2.3 1-0.7 2-0.6 3.2 0.3 1.6 1.1 1.7 1 0.5-0.5-0.7-1.2-0.8-2-0.2-2.3 0.6-0.3 1.4-0.3 2 0 0.6 0.3 1.3-0.1 1.7-0.7q0.8-1.3-0.5-0.5c-0.6 0.4-1.2 0.5-1.2 0.2 0-0.3 3.5-2.1 7.7-4.1 4.3-1.9 8.4-3.3 9-3 0.8 0.4 1 0.2 0.5-0.6-0.5-0.8 0.1-1.1 1.9-0.7 1.5 0.2 2.5 0.2 2.2-0.1-0.3-0.3 1.7-1.1 4.4-1.7 2.9-0.8 9-1.1 15.8-0.8zm649.5 47c4.1 0.2 9.7 1.1 12.5 2 3.7 1.3 4.6 2 3.5 2.6-1 0.5-0.2 0.7 2.2 0.6 2.7-0.2 3.3 0.1 2.5 1-0.8 0.8-0.4 1.1 1.5 0.9 2.2-0.3 2.4-0.1 1.5 1.3-0.6 0.9-0.7 1.3-0.2 0.9 0.6-0.5 1.6-0.3 2.2 0.2 0.7 0.6 1.1 1.4 0.8 2-0.3 0.6 0 0.9 0.6 0.8 0.7-0.2 2.8 1.7 4.7 4.2 1.9 2.5 3.9 4.4 4.3 4.3 0.5-0.2 0.7 0.1 0.4 0.7-0.3 0.6 0.2 2.6 1 4.5 0.8 1.9 1.5 3.9 1.5 4.5 0 0.6-0.3 1-0.8 1-0.4 0-0.8-1.2-0.9-2.8-0.1-1.5-0.7-3.1-1.4-3.7-0.9-0.7-1-0.5-0.4 1 0.4 1.1 0.8 4.3 0.8 7 0 2.8 0.1 4 0.3 2.8 0.2-1.3 1.1-2.5 1.9-2.8q1.5-0.5 1.5 1.5 0 2-1.2 1.3c-0.9-0.6-1-0.3-0.5 1q0.7 1.7-0.8 2.2c-0.8 0.3-1.2 1.1-0.9 1.8 0.5 0.9 0.9 0.8 1.5-0.3 0.6-1 0.8-0.5 0.7 1.8-0.2 1.9-0.7 3.7-1.3 4-0.6 0.4-0.7 0.2-0.2-0.6 0.4-0.6 0.2-1.4-0.3-1.7-0.6-0.3-0.8 0.4-0.5 1.7 0.3 1.3 0.9 2.7 1.3 3.3 0.4 0.6 0.2 0.7-0.6 0.2-0.9-0.5-1.2 0.3-1.2 2.8 0 1.9 0.5 3.7 1 4 0.5 0.3 1.3-0.3 1.7-1.2 0.4-1.1 0.2-1.9-0.5-2-0.7-0.2-1.2-0.7-1.2-1.3 0-0.6 0.5-0.8 1-0.5 0.5 0.3 1.3-0.5 1.6-1.7 0.3-1.3 0.4-4.2 0.3-6.5-0.2-2.3 0-4.5 0.5-5 0.5-0.5 0.6 2.8 0.3 7.7-0.4 4.7-1.3 10.5-2 13-0.8 2.5-2.2 6-3.1 7.8-0.9 1.7-3.2 5-5.1 7.2-1.9 2.2-4 3.8-4.5 3.5-0.6-0.3-0.8 0.4-0.5 1.5 0.3 1.1 0.1 1.8-0.5 1.5-0.5-0.3-1.8 0.1-2.7 0.8-1.4 1-1.6 1-0.9-0.3 0.4-0.8 0.1-0.6-0.8 0.5-0.8 1.1-1.3 2.3-1.1 2.8 0.3 0.4-0.4 0.2-1.5-0.3q-2-1-1.5 0c0.3 0.5-1.9 1.7-4.8 2.5-2.8 0.8-6.6 1.7-8.2 2.1-1.6 0.4-5.8 0.4-9.3 0-3.6-0.3-6-1-5.7-1.6 0.3-0.6-0.4-0.7-1.8-0.3-1.6 0.5-2 0.4-1.5-0.5 0.6-0.9 0.2-1-1.7-0.2-1.4 0.5-2.3 0.7-2 0.3 0.2-0.5-1.1-1.6-3-2.5-1.9-1-3.3-2.3-3-2.8 0.3-0.5-0.1-0.8-0.8-0.5-0.6 0.3-3.4-1.3-6.1-3.7-3.2-2.8-6-6.7-8.2-11.3-1.9-3.9-3.9-9.9-4.5-13.5-0.6-3.6-0.8-7.9-0.6-9.5 0.4-2.7 0.4-2.6 0.6 0.8 0 2 0.4 3.7 0.8 3.7 0.5 0 0.4-2.6 0-5.8-0.7-4.7-0.4-6.9 1.5-12.7 1.4-4.1 2.8-6.9 3.6-6.8q1.2 0.3 0.5-1.5c-0.5-1.2-0.4-1.5 0.5-1 0.6 0.5 1.5 0.2 1.9-0.4q0.8-1.3-0.5-0.5c-0.6 0.4-1.2 0.4-1.2-0.1-0.1-0.4 2.3-3 5.2-5.8 2.9-2.8 7.2-6.1 9.5-7.2 2.4-1.2 4.6-2.2 5-2.2 0.5 0 0.1 0.5-0.7 1-0.8 0.5-1 0.9-0.5 0.9 0.5 0 1.9-0.4 3-0.9 1.4-0.6 1.6-0.9 0.5-1-0.8-0.1 0.5-0.8 3-1.6 2.8-0.8 7.4-1.2 12-0.9zm-18.2 26.1c-1.5 1.6-3.6 4.9-4.7 7.4-1.3 2.8-2.1 6.6-2.1 10 0 3 0.5 7.2 1 9.2 0.6 2.1 2.7 5.7 4.7 7.9 2.1 2.3 5.7 5 8 6 2.4 1.1 6.2 1.9 8.5 1.9 2.4 0 6.3-0.6 8.8-1.4 2.9-1 5.9-3.1 8.4-5.8 2.2-2.4 4.6-5.9 5.4-7.8 0.9-1.9 1.6-6.4 1.6-10 0.1-3.9-0.6-8.3-1.6-11-1-2.5-3.2-5.9-5-7.7-1.8-1.8-5.3-3.9-7.8-4.8-2.5-0.8-6.3-1.5-8.5-1.5-2.2 0-6.3 1.1-9 2.4-2.8 1.3-6.2 3.6-7.7 5.2zm-628.9 0.6c0.2-0.1 0.1 0.1-0.2 0.5-0.4 0.5 0 1.5 0.8 2.3 1.1 1.2 1.4 5.5 1.5 43l4.1-3.8c2.2-2 4.5-3.6 5-3.5 0.5 0.2 0.7 0 0.4-0.5-0.2-0.4 0.3-1.5 1.3-2.5 0.9-0.9 2.2-1.4 2.7-1 0.6 0.5 0.7 0.4 0.3-0.2-0.4-0.6 1.6-3.6 4.5-6.8 2.8-3.2 5.3-5.5 5.5-5.2 0.1 0.3 1.1-0.4 2.2-1.5 1.1-1.1 3.7-2.4 5.8-3 2-0.5 6.3-1 9.5-1 3.1 0 7.4 0.7 9.5 1.7 2 0.9 4 1.5 4.5 1.5 0.4-0.1 0.6 0.9 0.5 2.2-0.2 1.3 0 2.2 0.5 2 0.4-0.2 0.8 19.8 1 44.5 0.1 24.7 0 44.8-0.3 44.5-0.3-0.2-1.6 0.6-3 1.7-1.4 1.1-3.5 2-4.7 1.9-1.3 0-3.4-1.1-7.3-5v-77h-3.5c-2.1 0-3.4-0.5-3.2-1.1 0.1-0.6-0.2-1.3-0.8-1.5-0.5-0.2-1 0.4-1 1.3 0 0.9-1.1 2.3-2.5 3-1.5 0.7-1.9 1.3-0.9 1.3 0.8 0 2-0.6 2.7-1.3 0.7-0.6 1.2-1 1.2-0.7 0 0.3-2.5 3-5.5 6-3.3 3.3-5.3 4.7-5 3.5 0.6-1.6 0.5-1.7-0.3-0.5-0.6 0.8-0.9 1.8-0.6 2.2 0.2 0.5-0.3 1.4-1.3 2-0.9 0.7-2.3 1.4-3.2 1.5-0.9 0.2-1.8 0.6-2.1 1-0.3 0.3 0.3 0.3 1.3 0 0.9-0.4 1.7-0.5 1.7-0.2 0 0.3-2.6 3.2-5.7 6.5-3.2 3.3-6.2 5.7-6.8 5.3-0.5-0.3-0.7-0.2-0.2 0.3 0.4 0.5-0.3 1.9-1.5 3.1-1.3 1.2-2.6 2-3 1.8-0.5-0.3-1.1 0.1-1.5 0.7-0.6 0.9-0.4 1 0.7 0.4 1-0.6 0.9-0.2-0.3 1-1.5 1.6-2.9 1.8-8.5 1.6-5.3-0.3-7.2-0.8-8.9-2.5-1.2-1.2-1.9-2.7-1.5-3.2 0.4-0.6 0.2-0.7-0.6-0.3-0.8 0.5-2.7-1-5.4-4.3-2.4-2.9-4.2-5.6-4-6 0.1-0.5-0.1-0.7-0.5-0.4-0.5 0.2-1.7-0.5-4.8-4l2 1.5c1.8 1.4 1.9 1.4 0.8-0.3-0.7-0.9-1.6-1.5-2-1.2-0.5 0.2-1.6-0.3-2.5-1.3-0.9-0.9-1.7-2.2-1.7-2.7-0.1-0.5-0.7-1-1.3-1-0.7-0.1-1.2-0.6-1-1.3 0.1-0.7-0.1-1-0.5-0.7-0.5 0.2-2.6-1.4-4.8-3.6-2.2-2.2-5.5-4.9-7.2-5.9-1.8-1.1-3.1-1.5-2.8-1 0.3 0.5 0.1 1-0.5 1-0.6 0-1 13.8-1 39.3-0.1 27.5-0.4 39.5-1.2 40.2-0.8 0.7-0.9 0.4 0.3-3l-1.9 2q-1.9 2-0.8 2.6c0.7 0.4 0.4 0.9-0.6 1.3-1 0.3-2.7 0.6-3.8 0.6-1.1 0-1.8-0.5-1.5-1 0.3-0.5-0.2-1.2-1-1.5q-1.5-0.5-0.8 0.7c0.5 1 0.4 1-0.8 0.1-0.8-0.7-1.7-1-2.2-0.5-0.4 0.4-0.6-20.3-0.5-45.9 0.2-35.4 0.6-46.9 1.5-48 0.7-0.8 1-1.8 0.5-2.3-0.4-0.5-0.1-0.6 0.6-0.3 0.6 0.4 1.9 0.3 2.7-0.3 0.8-0.6 2.5-0.7 3.8-0.4 1.8 0.4 1.9 0.3 0.7-0.6-1.1-0.9 0.4-1.1 6.5-0.8 6 0.3 8.9 0.9 11.8 2.6 2 1.2 4.3 1.9 5 1.5 0.6-0.3 0.9-0.2 0.5 0.3-0.4 0.5 0.6 2.5 2.2 4.4 1.6 1.9 2.6 3.9 2.2 4.5-0.4 0.6-0.2 0.7 0.6 0.2 0.7-0.4 1.4-0.1 1.7 0.8 0.3 0.8 1 1.3 1.5 1 0.6-0.3 1.8 0.7 2.7 2.2 1 1.6 1.6 3.3 1.4 3.8-0.1 0.5 0.1 0.7 0.6 0.2 0.4-0.4 2.2 0.7 4 2.5 2.2 2.3 3.7 3.1 4.8 2.5 1.3-0.6 1.5-3.6 1.5-20-0.1-17.1 0.1-19.4 1.7-20.9 1-0.9 3.6-1.8 5.8-2.1 2.2-0.2 4.2-0.4 4.4-0.5z"/>
		<path id="Path 28" class="s5" d="m269.3 521.6c1.6 0.4 1.7 3.1 2 37.1l0.2 36.8c0-73.2 0-74-2-74.2q-2.1-0.2-0.3 0.3z"/>
		<path id="Path 29" class="s6" d="m289.5 554c0 23.4 0.1 32.8 0.2 21 0.2-11.8 0.2-31 0-42.5-0.1-11.5-0.2-1.9-0.2 21.5z"/>
		<path id="Path 30" class="s2" d="m895.2 489.3c0.6 1.2 1.8 5.1 2.5 8.7l1.3 6.5c-0.8-8.9-1.7-12.9-2.5-14.5-0.8-1.6-1.8-3-2.1-3-0.3 0 0.1 1 0.8 2.2z"/>
		<path id="Path 31" class="s3" d="m229 449.7c1.4 0.2 4.8 1.1 7.5 2 2.8 0.9 6.1 2.3 7.5 3.1 1.4 0.9 4.5 3.2 6.9 5.1 2.5 2 5.8 5.6 7.3 8.1 1.7 2.7 2.8 5.9 2.8 8 0.1 2.5-0.8 4.4-2.7 6.5-1.5 1.6-2.1 2.7-1.3 2.4 0.8-0.3 2.3-1.7 3.4-3 1-1.3 1.8-3.8 1.8-5.4 0-1.6-0.9-4.8-2-7-1-2.2-4.8-6.6-8.3-9.8-4-3.6-8.5-6.6-11.9-7.9-3-1.1-7.3-2.2-9.5-2.3-2.2-0.1-2.9-0.1-1.5 0.2zm-13.5 18.9c-2.7 0.9-6.3 3.9-11 8.9-3.8 4.1-6.7 7.5-6.2 7.5 0.4 0 1.5-0.8 2.5-1.8 0.9-1.1 3.3-3.9 5.3-6.3 1.9-2.4 5.3-5.3 7.5-6.3 2.1-1.1 6.8-2.3 10.4-2.6l6.5-0.7c-8.5-0.1-12.8 0.5-15 1.3zm652.5 6.5c-1.9 0.5-5.7 2.7-8.5 4.7-3.4 2.6-5.9 5.6-8 9.7-1.9 3.8-3.1 7.8-3.4 11.4-0.2 3.1 0.2 7.4 0.9 9.6 0.7 2.2 2.3 5.7 3.6 7.8 1.3 2 4.3 5.1 6.7 6.7 2.3 1.7 4.7 3.1 5.2 3.1 0.5-0.1-1-1.4-3.5-3-2.5-1.6-5.4-4.2-6.6-5.8-1.1-1.5-2.8-4.7-3.7-7-0.9-2.4-1.7-6.5-1.7-9.3 0-2.8 1-7.6 2.2-10.7 1.2-3.2 3.7-7.3 5.5-9 1.8-1.8 5.2-4.3 7.6-5.5 3.1-1.6 5.9-2.2 10.7-2.2 4.5 0 7.7 0.6 10.5 2.1 2.2 1.1 5.6 3.8 7.5 6 2 2.3 4.3 6.6 5.4 9.9 1.4 4.4 1.6 7.2 1.1 10.9-0.4 2.8-1.6 6.8-2.5 9-1 2.2-3.3 5.5-5.1 7.4-1.9 1.9-5.6 4.5-8.4 5.8-3.6 1.8-4.2 2.3-2 1.8 1.6-0.3 4.8-1.9 7-3.4 2.2-1.5 5.5-5 7.3-7.7 1.8-2.8 3.7-7.3 4.3-10.4 0.6-3 0.8-7.3 0.4-9.5-0.3-2.2-1.4-5.8-2.4-8-1-2.2-3.4-5.6-5.2-7.5-1.9-1.9-5.2-4.3-7.4-5.4-2.2-1-6.2-2-9-2.2-2.7-0.2-6.6 0.1-8.5 0.7zm-0.5 53.9c1.1 0.5 4 0.9 6.5 1 2.5 0 4.3-0.1 4-0.3-0.3-0.2-3.2-0.7-6.5-1-3.8-0.4-5.3-0.3-4 0.3z"/>
		<path id="Path 32" class="s4" d="m216 453.3c-0.9 2.9-1 2.9-0.7 0.5 0.1-1.5 0-2.8-0.3-2.8-0.3 0-2 0.4-3.8 1-1.7 0.5-3 1.4-2.7 2 0.3 0.5-0.1 0.8-0.8 0.5-0.6-0.3-1.5 0.3-1.9 1.5-0.5 1.1-1.4 2-2.1 2q-1.2 0 0.3-1c0.8-0.5 1.2-1.3 0.8-1.7-0.4-0.4-2.2 0.4-4 1.8-1.8 1.5-4.3 3.6-5.5 4.8-1.4 1.2-2 2.6-1.6 3.3q0.8 1.3-0.5 0.5c-0.7-0.4-2 0.3-3.2 2-1.1 1.6-2.3 3.9-2.6 5.3-0.3 1.4-0.3 4 0 5.7 0.4 2.4 1.5 3.7 3.6 4.8 1.9 1 3.9 1.2 5.7 0.7 1.4-0.4 3.8-2.3 5.2-4.2 1.4-1.9 3.8-5 5.3-6.8 1.5-1.7 3-3.2 3.3-3.2 0.3 0 1.9-0.6 3.5-1.3 1.7-0.6 3.1-1.5 3-2 0-0.4 0.8-0.4 1.8-0.1 0.9 0.4 2.6 0.3 3.7-0.1l2-0.7c-3.7-1.5-3.7-1.7-2.3-1.7 1-0.1 2.1 0 2.5 0.1 0.5 0.2 0.7 0.5 0.7 0.8-0.1 0.3 1 0.4 2.5 0.3 1.8-0.2 2-0.1 0.6 0.3-1.6 0.5-1.2 0.9 2 1.9 2.2 0.7 4.7 1.1 5.5 0.8 0.8-0.3 1.8 0 2.3 0.6q0.7 1.1-1 0.5c-1-0.4-0.2 0.7 1.7 2.4 1.9 1.6 3.7 2.9 4 2.7 0.3-0.2 0.5 1 0.5 2.5 0 2.2 0.4 2.7 2 2.4 1.2-0.2 2 0.2 2 1 0 0.8-0.4 1.2-1 0.9-0.6-0.3-0.3 0.1 0.5 1 0.8 0.8 3 1.8 4.8 2.1 2.7 0.5 3.7 0.1 6.2-2.4 1.9-1.9 3-4 3-5.8 0-1.5-1.1-4.5-2.3-6.7-1.8-3.1-2.8-4-4.7-3.8-1.4 0.1-1.7 0-0.7-0.3 0.9-0.2 2-1.2 2.3-2.2 0.3-0.9 0.3-1.4 0-1-0.3 0.5-2.7-0.8-5.3-2.8-2.7-2-6.1-4.3-7.8-5.2-1.7-0.8-5-2.1-7.5-2.8-2.5-0.8-7.5-1.4-11.2-1.4-6.7 0-6.8 0-7.8 3.2z"/>
		<path id="Path 33" class="s1" d="m191.1 479.8c-0.1 0.6 0.2 1.4 0.7 1.6 0.4 0.3 2.2 0.7 4 1.1 2.1 0.3 3.1 0.2 2.8-0.5-0.3-0.5 0-1.2 0.7-1.5 0.6-0.2-0.7-0.2-3 0-2.9 0.4-4.4 0.1-4.7-0.8-0.4-1-0.5-1-0.5 0z"/>
	</g>
</svg>